<svg xmlns="http://www.w3.org/2000/svg" viewBox="0 0 550 132.28"><defs><style>.cls-1-paysafe{fill:#7983c0;}.cls-2-paysafe{fill:#f05174;}.cls-3-paysafe{fill:#fff;}</style></defs><g id="Layer_2_Paysafe" data-name="Layer 2"><g id="Layer_1-2_Paysafe" data-name="Layer 1"><path class="cls-1-paysafe" d="M534.24,63.14a15.76,15.76,0,1,0-15.75-15.76A15.77,15.77,0,0,0,534.24,63.14Z"/><path class="cls-2-paysafe" d="M534.24,80.93A15.76,15.76,0,1,0,550,96.69,15.76,15.76,0,0,0,534.24,80.93Z"/><path class="cls-3-paysafe" d="M384.71,30.27v3.17H371.85v16.5h12.86v60.68h24.06V49.94h16.65V33.44H408.77V29.36c0-6.81,2.73-11.65,10.14-11.65A27.2,27.2,0,0,1,426,18.76V1.51A43.2,43.2,0,0,0,414.53,0C395,0,384.71,12,384.71,30.27Zm-129.88,25c0-3.63,3.63-5.91,9.69-5.91,6.35,0,13,2.28,17.85,4.39l6.81-15.89a61,61,0,0,0-25.87-6.2c-18,0-32.54,8.17-32.54,24.51,0,25.73,36.32,21,36.32,32.39,0,4.24-4.24,6.36-11.35,6.36-7.27,0-14.23-2.43-19.67-5.15l-7.72,15.59a63.8,63.8,0,0,0,29.51,7.11c17.55,0,32.68-9.08,32.68-25.73C290.54,61.29,254.83,65.53,254.83,55.24ZM336,31.63A64.93,64.93,0,0,0,302,40.86l6.66,13.77c4.39-2,13.62-5.45,21.49-5.45,5.6,0,10.59,2,10.59,7.87V62.2c-33.37-2.38-43,12.31-43,25.87,0,13.25,11.22,24.37,26,24.37a33.53,33.53,0,0,0,17-5.24v3.42h24.22V56.9C364.92,39.5,353.87,31.63,336,31.63Zm4.69,62a16.58,16.58,0,0,1-9.53,3c-6.05,0-10.14-3.48-10.14-9.08,0-6.35,5-12.57,19.67-10.14Zm-225.78-62a64.93,64.93,0,0,0-34,9.23l6.66,13.77c4.39-2,13.62-5.45,21.49-5.45,5.6,0,10.59,2,10.59,7.87V62.2c-33.37-2.38-43,12.31-43,25.87,0,13.25,11.22,24.37,26,24.37a33.53,33.53,0,0,0,17-5.24v3.42h24.22V56.9C143.83,39.5,132.78,31.63,114.92,31.63Zm5.6,62a16.58,16.58,0,0,1-9.54,3c-6,0-10.14-3.48-10.14-9.08,0-6.35,5-12.57,19.68-10.14ZM40.1,6.2H0V110.62H24.82V72.49H40.1c20.13,0,35.26-12.56,35.26-33.9C75.36,20.13,64,6.2,40.1,6.2ZM37.37,54.32H24.82V24.37H37.37c8.94,0,13.93,6.2,13.93,15.13C51.3,49,45.7,54.32,37.37,54.32ZM205.86,33.44,189.21,79.56,170.1,33.44H145.31L178,107l-10.18,25.29h23l39.11-98.84Zm259.59-1.81c-21.49,0-38.14,17.1-38.14,40.86,0,24.36,15.74,40,40.86,40h0c7,0,20.86-1.26,31.54-8.66l-6.75-15a43.3,43.3,0,0,1-21.16,6h0c-.57,0-1.13,0-1.68,0l-.38,0c-.53,0-1.05-.09-1.56-.16l-.34,0-1.23-.22-.42-.09c-.42-.09-.82-.2-1.22-.32l-.64-.2c-.29-.09-.57-.2-.85-.3s-.63-.26-.93-.4l-.27-.12c-.49-.24-1-.49-1.41-.76l0,0a15.62,15.62,0,0,1-2.71-2.09l0,0a12.68,12.68,0,0,1-1-1c-.12-.13-.23-.27-.35-.41s-.33-.43-.5-.65c-.27-.37-.53-.75-.78-1.16v0a23.17,23.17,0,0,1-2.92-9.78h50.17v-6C502.76,48.22,486.94,31.63,465.45,31.63ZM452.59,64.17c.9-10.3,6.2-15.59,12.86-15.59s11.95,5.29,12.86,15.59Z"/></g></g></svg>
