<?xml version="1.0" encoding="UTF-8" standalone="no"?>
<svg
   xmlns:dc="http://purl.org/dc/elements/1.1/"
   xmlns:cc="http://creativecommons.org/ns#"
   xmlns:rdf="http://www.w3.org/1999/02/22-rdf-syntax-ns#"
   xmlns:svg="http://www.w3.org/2000/svg"
   xmlns="http://www.w3.org/2000/svg"
   viewBox="0 0 370.65332 105.85333"
   xml:space="preserve"
   id="telus-svg2"
   version="1.1"><metadata
     id="telus-metadata8"><rdf:RDF><cc:Work
         rdf:about=""><dc:format>image/svg+xml</dc:format><dc:type
           rdf:resource="http://purl.org/dc/dcmitype/StillImage" /></cc:Work></rdf:RDF></metadata><defs
     id="telus-defs6" /><g
     transform="matrix(1.3333333,0,0,-1.3333333,0,105.85333)"
     id="telus-g10"><g
       transform="scale(0.1)"
       id="telus-g12"><path
         id="telus-path14"
         style="fill:#ffffff;fill-opacity:1;fill-rule:nonzero;stroke:none"
         d="m 1033.99,264.75 h 16.05 V 4.37109 h -16.05 V 264.75" /><path
         id="telus-path16"
         style="fill:#ffffff;fill-opacity:1;fill-rule:nonzero;stroke:none"
         d="m 1093.44,191.82 h 13.86 v -40.117 h 0.73 c 9.47,28.078 37.93,44.492 67.09,44.492 66.01,0 66.74,-52.879 66.74,-75.859 V 4.37109 h -13.85 V 122.895 c 0,19.328 -2.19,61.261 -53.24,61.261 -41.95,0 -67.47,-32.453 -67.47,-78.398 V 4.37109 h -13.86 V 191.82" /><path
         id="telus-path18"
         style="fill:#ffffff;fill-opacity:1;fill-rule:nonzero;stroke:none"
         d="m 1351.66,179.781 h -40.85 V 48.8633 c 0,-30.2735 14.22,-33.1836 40.47,-32.461 V 4.37109 c -28.43,-1.82812 -55.79,2.1875 -54.33,44.49221 V 179.781 h -34.64 v 12.039 h 34.64 v 58.352 h 13.86 V 191.82 h 40.85 v -12.039" /><path
         id="telus-path20"
         style="fill:#ffffff;fill-opacity:1;fill-rule:nonzero;stroke:none"
         d="m 1520.15,108.305 c -0.73,39.386 -25.53,75.851 -68.56,75.851 -41.57,0 -66.01,-38.652 -68.93,-75.851 z M 1382.66,96.2734 c -0.73,-44.1289 22.61,-84.2461 68.93,-84.2461 35.37,0 60.53,21.1524 67.1,55.8008 h 13.85 c -7.29,-43.7617 -36.46,-67.83200625 -80.95,-67.83200625 -54.7,0 -83.52,43.02730625 -82.79,94.81250625 -0.73,51.4254 26.25,101.3864 82.79,101.3864 58.71,0 84.97,-46.316 82.41,-99.9216 h -151.34" /><path
         id="telus-path22"
         style="fill:#ffffff;fill-opacity:1;fill-rule:nonzero;stroke:none"
         d="m 1580.35,150.25 h 1.09 c 7.29,24.434 37.93,44.121 71.84,42.664 v -13.855 c -14.58,1.816 -35,-1.829 -51.78,-18.243 -13.87,-14.218 -19.7,-25.89 -21.15,-53.964 V 4.37109 h -13.87 V 191.82 h 13.87 v -41.57" /><path
         id="telus-path24"
         style="fill:#ffffff;fill-opacity:1;fill-rule:nonzero;stroke:none"
         d="m 1667.89,191.82 h 13.85 v -40.117 h 0.74 c 9.47,28.078 37.93,44.492 67.09,44.492 66.01,0 66.73,-52.879 66.73,-75.859 V 4.37109 h -13.84 V 122.895 c 0,19.328 -2.19,61.261 -53.25,61.261 -41.94,0 -67.47,-32.453 -67.47,-78.398 V 4.37109 h -13.85 V 191.82" /><path
         id="telus-path26"
         style="fill:#ffffff;fill-opacity:1;fill-rule:nonzero;stroke:none"
         d="m 1981.54,110.855 c -10.94,-12.3941 -40.84,-10.937 -67.83,-14.5816 -32.83,-3.6523 -51.43,-15.3203 -51.43,-43.3984 0,-22.6172 16.42,-40.8477 49.24,-40.8477 63.09,0 70.02,53.9727 70.02,63.8165 z m 13.86,-71.8355 c 0,-10.9492 0,-22.6172 12.39,-22.6172 2.56,0 5.84,0.3711 10.21,1.0938 V 5.82422 c -4,-0.72266 -7.65,-1.45313 -11.3,-1.45313 -21.88,0 -25.16,12.03121 -25.16,27.35161 v 9.8437 h -0.72 c -8.76,-22.2461 -33.93,-41.57030625 -69.67,-41.57030625 -35.37,0 -62.72,13.49610625 -62.72,52.87890625 0,43.7617 37.93,52.883 68.93,55.43 61.99,4.375 64.55,8.39 64.55,39.023 0,8.391 -9.49,36.828 -52.16,36.828 -33.54,0 -55.79,-17.5 -57.62,-49.961 h -13.85 c 1.81,41.211 27.34,62 71.47,62 32.82,0 65.65,-10.215 65.65,-48.867 V 39.0195" /><path
         id="telus-path28"
         style="fill:#ffffff;fill-opacity:1;fill-rule:nonzero;stroke:none"
         d="m 2108.47,179.781 h -40.84 V 48.8633 c 0,-30.2735 14.22,-33.1836 40.48,-32.461 V 4.37109 c -28.45,-1.82812 -55.79,2.1875 -54.34,44.49221 V 179.781 h -34.64 v 12.039 h 34.64 v 58.352 h 13.86 V 191.82 h 40.84 v -12.039" /><path
         id="telus-path30"
         style="fill:#ffffff;fill-opacity:1;fill-rule:nonzero;stroke:none"
         d="M 2137.3,4.37109 V 191.82 h 13.85 V 4.37109 Z m 0,222.81991 v 37.559 h 13.85 v -37.559 h -13.85" /><path
         id="telus-path32"
         style="fill:#ffffff;fill-opacity:1;fill-rule:nonzero;stroke:none"
         d="m 2272.59,12.0273 c 47.05,0 72.21,41.211 72.21,86.0625 0,44.8632 -25.16,86.0662 -72.21,86.0662 -47.03,0 -72.2,-41.203 -72.2,-86.0662 0,-44.8515 25.17,-86.0625 72.2,-86.0625 z m 0,184.1677 c 55.08,0 86.08,-44.851 86.08,-98.1052 0,-53.2421 -31,-98.09370625 -86.08,-98.09370625 -55.06,0 -86.05,44.85160625 -86.05,98.09370625 0,53.2542 30.99,98.1052 86.05,98.1052" /><path
         id="telus-path34"
         style="fill:#ffffff;fill-opacity:1;fill-rule:nonzero;stroke:none"
         d="M 2391.15,191.82 H 2405 v -40.117 h 0.73 c 9.48,28.078 37.92,44.492 67.1,44.492 66.01,0 66.74,-52.879 66.74,-75.859 V 4.37109 h -13.86 V 122.895 c 0,19.328 -2.19,61.261 -53.24,61.261 -41.95,0 -67.47,-32.453 -67.47,-78.398 V 4.37109 h -13.85 V 191.82" /><path
         id="telus-path36"
         style="fill:#ffffff;fill-opacity:1;fill-rule:nonzero;stroke:none"
         d="m 2704.8,110.855 c -10.95,-12.3941 -40.85,-10.937 -67.83,-14.5816 -32.83,-3.6523 -51.43,-15.3203 -51.43,-43.3984 0,-22.6172 16.41,-40.8477 49.24,-40.8477 63.09,0 70.02,53.9727 70.02,63.8165 z m 13.85,-71.8355 c 0,-10.9492 0,-22.6172 12.4,-22.6172 2.56,0 5.84,0.3711 10.22,1.0938 V 5.82422 c -4.02,-0.72266 -7.66,-1.45313 -11.31,-1.45313 -21.88,0 -25.16,12.03121 -25.16,27.35161 v 9.8437 h -0.73 c -8.76,-22.2461 -33.92,-41.57030625 -69.66,-41.57030625 -35.37,0 -62.72,13.49610625 -62.72,52.87890625 0,43.7617 37.92,52.883 68.92,55.43 62,4.375 64.55,8.39 64.55,39.023 0,8.391 -9.48,36.828 -52.16,36.828 -33.54,0 -55.79,-17.5 -57.61,-49.961 h -13.85 c 1.82,41.211 27.34,62 71.46,62 32.84,0 65.65,-10.215 65.65,-48.867 V 39.0195" /><path
         id="telus-path38"
         style="fill:#ffffff;fill-opacity:1;fill-rule:nonzero;stroke:none"
         d="M 2779.95,264.75 V 4.37109 h -13.86 V 264.75 h 13.86" /><path
         id="telus-path40"
         style="fill:#ffffff;fill-opacity:1;fill-rule:nonzero;stroke:none"
         d="m 2505.97,688.777 h 5.18 c 4.38,0 8.4,0.215 8.4,5.254 0,4.231 -3.66,4.883 -7.02,4.883 h -6.56 z m -4.96,14.153 h 12.34 c 7.58,0 11.16,-2.989 11.16,-9.121 0,-5.762 -3.65,-8.164 -8.4,-8.672 l 9.12,-14.082 h -5.32 l -8.68,13.711 h -5.26 v -13.711 h -4.96 z m 10.66,-39.239 c 12.61,0 22.39,10.067 22.39,23.407 0,13.058 -9.78,23.125 -22.39,23.125 -12.77,0 -22.54,-10.067 -22.54,-23.125 0,-13.34 9.77,-23.407 22.54,-23.407 z m 0,50.547 c 14.87,0 27.35,-11.75 27.35,-27.14 0,-15.68 -12.48,-27.422 -27.35,-27.422 -14.96,0 -27.5,11.742 -27.5,27.422 0,15.39 12.54,27.14 27.5,27.14" /><path
         id="telus-path42"
         style="fill:#ffffff;fill-opacity:1;fill-rule:nonzero;stroke:none"
         d="m 1471.26,663.309 v 50.8 H 1290.13 V 452.828 h 181.13 v 52.988 H 1363.5 v 57.914 h 89.63 v 50.739 h -89.63 v 48.84 h 107.76" /><path
         id="telus-path44"
         style="fill:#ffffff;fill-opacity:1;fill-rule:nonzero;stroke:none"
         d="m 1790.81,504.379 h -113.2 v 209.738 h -74.27 V 452.828 h 187.47 v 51.551" /><path
         id="telus-path46"
         style="fill:#ffffff;fill-opacity:1;fill-rule:nonzero;stroke:none"
         d="m 2388.81,614.535 c -50.1,11.313 -67.63,12.574 -67.63,32.5 0,18.52 24.78,24.305 39.1,24.305 23.14,0 50.39,-5.383 78.14,-19.668 l 20.21,48.074 c -28.43,15.563 -64.98,22 -100.18,22 -69.12,0 -115.47,-28.019 -117.38,-82.668 -2.01,-49.812 38.54,-68.492 75.79,-76.191 35.9,-7.403 72.33,-13.75 73.06,-35.09 0.67,-19.676 -17,-28.086 -50.38,-28.086 -30.95,0 -59.67,9.922 -89.09,22.219 l -17.1,-52.227 c 33.72,-14.394 67.99,-22.297 103.36,-22.297 49.1,0 84.89,7.649 111.28,32.403 18.29,17.023 24.25,37.55 24.25,57.089 0,41.321 -25.69,64.602 -83.43,77.637" /><path
         id="telus-path48"
         style="fill:#ffffff;fill-opacity:1;fill-rule:nonzero;stroke:none"
         d="m 1184.79,662.555 v 51.554 H 956.895 V 662.555 H 1033.9 V 452.828 h 73.82 v 209.727 h 77.07" /><path
         id="telus-path50"
         style="fill:#ffffff;fill-opacity:1;fill-rule:nonzero;stroke:none"
         d="M 2044.12,714.109 V 548.102 c 0,-13 0,-16.614 -0.82,-21.653 -2.33,-15.82 -17.73,-25.008 -42.17,-25.312 -18.12,0.273 -31.37,5.636 -37.56,15.097 -3.11,4.895 -4.61,13.625 -4.61,27.559 v 170.316 h -76.98 v -180.07 c 0,-24.953 3.33,-36.191 14.55,-50.422 18.62,-23.308 54.85,-35.527 104.76,-35.527 h 1.61 1.07 c 66.86,0 101.3,26.113 111.31,50.461 5,11.816 5.38,17.429 5.38,41.277 v 174.281 h -76.54" /><path
         id="telus-path52"
         style="fill:#ffffff;fill-opacity:1;fill-rule:nonzero;stroke:none"
         d="M 991.691,785.66 559.84,699.684 v -30.106 l 1.402,0.363 c 285.258,69.332 430.449,111 431.621,111.317 1.621,0.422 2.168,1.68 1.957,2.73 -0.218,1.133 -1.394,2.032 -3.129,1.672" /><path
         id="telus-path54"
         style="fill:#ffffff;fill-opacity:1;fill-rule:nonzero;stroke:none"
         d="m 629.27,761.645 c 6.668,4.289 8.593,1.617 6.64,-3.243 -3.199,-7.738 -17.801,-54.492 -126.527,-143.73 -28.352,-23.238 -48.543,-36.328 -89.371,-60.477 66.871,93.75 164.531,178.379 209.258,207.45 m 11.312,32.257 c -21,-1.207 -59.863,-32.293 -81.184,-50.769 C 474.41,669.633 411.262,602.055 365.309,531.293 269.551,480.035 147.48,427.281 26.25,386.09 L 23.3398,385.113 0,322.27 l 13.332,5.168 c 77.1094,29.375 205.809,84.558 322.481,145.906 -6.575,-17.52 -9.895,-33.602 -9.895,-48.301 0,-10.977 1.844,-21.113 5.512,-30.438 7.351,-18.429 21.789,-32.441 41.843,-40.41 29.86,-11.925 70.606,-12.148 117.09,1.934 118.75,36.016 259.578,146.473 290.246,168.445 l 1.149,0.84 c 1.203,0.859 1.305,2.18 0.773,3.047 -0.66,1.016 -2.07,1.262 -3.242,0.598 l -1.5,-0.95 C 744.867,508.434 584.98,413.473 481.031,385.582 c -52.929,-14.211 -93.269,-6.426 -108.5,14.863 -5.289,7.246 -7.832,16.473 -7.832,27.215 0,20.918 9.844,47.617 28.86,77.246 17.48,9.981 33.789,19.707 48.492,28.899 101.418,57 218.258,167.82 223.211,235.449 0.039,0.449 0.039,0.988 0.039,1.508 0,5.801 -2.531,11.84 -6.949,16.293 -4.743,4.828 -11.024,7.246 -17.77,6.847" /><path
         id="telus-path56"
         style="fill:#ffffff;fill-opacity:1;fill-rule:nonzero;stroke:none"
         d="M 558.449,699.395 104.102,601.734 86.5469,554.516 559.84,669.586 l 0.754,0.18 v 30.078 l -2.145,-0.449" /></g></g></svg>
