<svg id="isobar_svg" data-name="isobar_svg" xmlns="http://www.w3.org/2000/svg" viewBox="0 0 1000 280"><defs><style>.isobar-cls-1{fill:#f74902;}</style></defs><title>Artboard 1</title><path class="isobar-cls-1" d="M582.62,79.88l-.43,0c-21.54,0-40.43,8.26-52.1,19.5l-.1.24.12-96.13L485.27,48.17V272.55h41.34l1-16.12c15.71,14.8,31,19.61,53.57,19.95h.95c22.52-.11,45.53-10.67,63.23-28.87,18.63-19.06,28.79-43.7,28.79-69.34C674.16,124.89,632.24,79.85,582.62,79.88Zm-6.79,153.44a55.09,55.09,0,0,1-45.25-23.7l-.47-.71V147.32l.47-.66a55.16,55.16,0,1,1,45.25,86.66ZM53.94,8.81A24.55,24.55,0,1,0,78.45,33.37,24.57,24.57,0,0,0,53.94,8.81ZM32.17,272.58h44V83.15h-44ZM179.46,155.2c-31.89-3.12-42.39-8.71-42.39-19.93,0-10.52,12.93-17.55,36.75-17.55,23.51,0,43.36,6.64,58.93,18.53l26-26.55A4.78,4.78,0,0,0,258,109c-22.42-18.63-51.12-29.08-82-29.08-45.88,0-79.19,22.4-79.19,56.76,0,39.9,31.12,53.28,78.16,57.49,35.75,3.15,48.73,9.13,48.73,22.83,0,12.94-13.34,21.72-42.79,21.72-25.93,0-44.22-6-62.23-19.45L91.89,246.46c.22.2.38.39.66.66,25.24,21,52.91,29.42,87.66,29.42,48,0,83.76-22.07,83.76-60.31C264,175.92,228.55,160.14,179.46,155.2ZM772.61,79.86c-22.92,0-43.37,6.26-59.16,18.07a68.47,68.47,0,0,0-9.29,8.23l24.23,24.26c8.89-9.08,24.47-14.4,42.4-14.4,25.09,0,40,17,40,33.38v7.16H769.4c-57.55,0-87.92,20.65-87.92,59.68,0,34.61,28.4,58.72,69.08,58.72,24.49,0,41.71-1.13,56.68-16.17l4.3-4.32.1,18.14h42.79V149.4C854.43,107.19,822.35,79.86,772.61,79.86ZM810.78,199c0,24.76-19.77,40.83-50.34,40.83-20,0-33-9.74-33-24.81,0-17.3,14.51-26.14,43-26.14h40.31Zm112-90.77.18-5.55V83.19l-43.22-.27V272.39h44.83V165.11h.08c.77-32.68,24.38-39.05,46-40.38V79.2C941.13,81.26,925.15,98.25,922.78,108.21ZM371.7,79.81a98.29,98.29,0,1,0,98.23,98.28A98.34,98.34,0,0,0,371.7,79.81Zm1.45,153.45A55.19,55.19,0,1,1,428.38,178,55.21,55.21,0,0,1,373.15,233.26Z"/></svg>
