<svg id="Layer_1" data-name="Layer 1" xmlns="http://www.w3.org/2000/svg" viewBox="0 0 1511.31 220"><defs><style>.cls-1{fill:#fff;}.cls-2{fill:#9dbc1d;}.cls-3{fill:#bccf00;}</style></defs><path class="cls-1" d="M633.43,125.46V105.7h20.39v16c0,6.43,3.3,9.57,9.41,9.57s9.26-3.76,9.26-11.29v-1.26c0-7.68-2.51-11.6-8.79-17.25L648.49,87.83c-9.25-8.32-14.27-16-14.27-28.86V55.68c0-17.73,9.72-25.88,28.38-25.88h3.3c17.09,0,27,7.37,27,22.58V67.75H672.8V56.46c0-7.06-2.82-9.88-8.47-9.88-6.12,0-8.94,2.67-8.94,9.41v1.1c0,6.9,2.35,10.19,8.63,16l15.05,13.8c10.35,9.57,15.06,16.47,15.06,30.43v3.29c0,15.84-8.47,28.39-29.17,28.39h-3.45C643.16,149,633.43,140.52,633.43,125.46Z"/><path class="cls-1" d="M705.63,49.56V31.05h58.65V49.56H745.46v98.18H724.61V49.56Z"/><path class="cls-1" d="M788.16,126.25l-3.3,21.49H766.51L786.12,31.05h26L833,147.74H812.94l-3.45-21.49Zm18.5-17.41-4.23-26.19c-2-13-3.14-21.17-3.61-27.92-.63,6.75-1.88,15.37-3.76,27.92L791,108.84Z"/><path class="cls-1" d="M846,147.74V31.05h36.7c15,0,22.58,6.59,22.58,22.12v12.7c0,12.23-6.43,17.25-11.76,18.82,6.12,2.35,11.76,7.37,11.76,19.29v29.64c0,6.12.79,10.67,1.89,13.33v.79H886.78c-1.1-1.89-2-5.34-2-13.34v-27c0-8-2.67-11.45-9.57-11.45h-8.63v51.76Zm29.17-68.38c7.06,0,9.57-4.08,9.57-11.61v-10c0-8-2.51-11-9.57-11h-8.63V79.36Z"/><path class="cls-1" d="M940.65,126.25l-3.29,21.49H919l19.6-116.69h26l20.86,116.69H965.43L962,126.25Zm18.51-17.41-4.23-26.19c-2-13-3.14-21.17-3.61-27.92-.63,6.75-1.88,15.37-3.77,27.92l-4.07,26.19Z"/><path class="cls-1" d="M1021.43,131.9,1055,48.77h-32V31.05h54.43V46.42l-34,83.28H1079v18h-57.55Z"/><path class="cls-1" d="M1112,126.25l-3.29,21.49h-18.35L1110,31.05h26l20.85,116.69h-20.07l-3.45-21.49Zm18.5-17.41-4.23-26.19c-2-13-3.14-21.17-3.61-27.92-.62,6.75-1.88,15.37-3.76,27.92l-4.08,26.19Z"/><path class="cls-1" d="M1167.77,121.86V59.6c0-17.88,7.53-29.65,28.23-29.65h3.29c21.49,0,27.45,11.77,27.45,28.86V66.5h-20.07V59.91c0-8-2.51-11.92-8.94-11.92-6,0-8.94,3.92-8.94,11.92v58.34c0,8,2.66,12.86,9.72,12.86,7.37,0,9.88-5.17,9.88-12.7V96.61H1197.1V78.73h30.58v69H1215c-.47-1.42-2-6.91-3.77-11.45-2,4.07-8,13-19.76,13h-1.1C1175.93,149.3,1167.77,137.54,1167.77,121.86Z"/><path class="cls-1" d="M1275.2,149.15h-3.13c-20.23,0-29.33-11-29.33-31.68V61.16c0-20.07,8.94-31.36,29.17-31.36h3.14c20.7,0,29.33,11.6,29.33,31.21v56.46C1304.38,138.17,1295.12,149.15,1275.2,149.15ZM1273.48,48c-6.27,0-9.72,3.45-9.72,13.33v56.3q0,13.19,9.88,13.18c6.43,0,9.72-4.39,9.72-13.18V61.32C1283.36,51.44,1279.6,48,1273.48,48Z"/><path class="cls-1" d="M1320,147.74V31.05h36.69c15.06,0,22.59,6.59,22.59,22.12v12.7c0,12.23-6.43,17.25-11.76,18.82,6.11,2.35,11.76,7.37,11.76,19.29v29.64c0,6.12.78,10.67,1.88,13.33v.79h-20.39c-1.1-1.89-2-5.34-2-13.34v-27c0-8-2.67-11.45-9.57-11.45h-8.63v51.76Zm29.17-68.38c7,0,9.57-4.08,9.57-11.61v-10c0-8-2.52-11-9.57-11h-8.63V79.36Z"/><path class="cls-1" d="M1414.64,126.25l-3.3,21.49H1393L1412.6,31.05h26l20.86,116.69h-20.07L1436,126.25Zm18.5-17.41-4.23-26.19c-2-13-3.14-21.17-3.61-27.92-.62,6.75-1.88,15.37-3.76,27.92l-4.08,26.19Z"/><polygon class="cls-2" points="161.84 85.07 126.57 120.33 145.29 139.04 161.84 122.5 161.84 85.07"/><polygon class="cls-2" points="161.84 31.18 99.62 93.39 118.34 112.1 161.84 68.61 161.84 31.18"/><polygon class="cls-3" points="134.87 128.63 80.91 182.58 72.61 174.28 126.57 120.33 107.86 101.62 53.9 155.57 45.66 147.34 99.62 93.39 80.91 74.68 26.95 128.63 8.23 147.34 80.91 220 153.58 147.34 134.87 128.63"/><polygon class="cls-1" points="115.66 0 115.66 14.72 104.01 14.72 104.01 0 57.83 0 57.83 14.72 46.18 14.72 46.18 0 0 0 0 139.1 72.67 66.44 91.39 85.15 161.84 14.72 161.84 0 115.66 0"/><path class="cls-1" d="M300.51,86.74C318.12,83.21,322,70.84,322,60.54c0-18.74-13.19-29-37.15-29H215.52V147.62h72.57c24.94,0,38.67-11.7,38.67-32.93C326.76,99.7,317.29,89.75,300.51,86.74ZM282,76.36H243.94v-19h37.75c9.9,0,11.93,3.83,11.93,9.58S291.68,76.36,282,76.36Zm-38.08,24h41.12c9.68,0,12.95,2.67,12.95,10.58s-3.27,10.76-12.95,10.76H243.94Z"/><path class="cls-1" d="M394.26,106.63h38.18c-1.15,11.94-8.68,15.27-32.91,15.27S367,113.73,367,89.55c0-23.88,8.81-32.34,33.69-32.34,25.38,0,28.8,9,28.8,17.84v1.74H460.8V75.05c0-27.91-22.76-45.25-59.41-45.25-39.07,0-64.31,23.45-64.31,59.75s22.53,59.75,57.39,59.75c24.68,0,35.39-11,39.94-22v20.31H461V85.37H394.26Z"/><polygon class="cls-1" points="579.75 57.37 579.75 31.49 479.48 31.49 479.48 147.62 579.75 147.62 579.75 121.73 507.9 121.73 507.9 102.07 577.22 102.07 577.22 76.36 507.9 76.36 507.9 57.37 579.75 57.37"/><path class="cls-1" d="M1489,71.38c-13.78,0-22.33-8-22.33-20.89s8.55-20.88,22.33-20.88,22.27,8,22.27,20.88S1502.78,71.38,1489,71.38ZM1489,35c-11.62,0-16.15,4.33-16.15,15.45S1477.42,66,1489,66s16.09-4.34,16.09-15.46S1500.62,35,1489,35Z"/><path class="cls-1" d="M1493.57,52.41c-.22,1.8-1.69,2.68-4.37,2.68-3.47,0-4.93-1.18-4.93-4.6s1.46-4.59,4.93-4.59c2.67,0,4.13.82,4.36,2.63h6.09c-.22-4.93-4.45-8.17-10.45-8.17-6.89,0-11,4-11,10.13s4.09,10.14,11,10.14c6,0,10.26-3.27,10.45-8.22Z"/></svg>