<svg id="Layer_1" data-name="Layer 1" xmlns="http://www.w3.org/2000/svg" viewBox="0 0 289 178"><defs><style>.cls-1{fill:#fff;fill-rule:evenodd;}</style></defs><title>Combo_White_CMYK</title><path class="cls-1" d="M252,91l-4,13,0.09,60H263v8h8l8-8h14l26-26V91H252Zm60,43-11,11H283l-10,10V145H258V98h54v36Zm-18-23h7v20h-7V111Zm-18,0h7v20h-7V111Zm85,93v47l-26,18H319v-8l-12,8H293v-8l-9,8H258l-8-8-2,8-22.95-.06L216,261l-1,8-26-.06L188,261l-7,7.94L141,269l-8-4v4H111L87,254,72,239V173h31l15,15h68V173h56v15h14v8l8-8h17l15-15h32v15h17Zm-250-9H97V180H79v56l11,12h21V229H97V213h14V195Zm75,0H168v34h-7V195H144v34h-7V195H118v53h56l12-12V195Zm24,0H193v53h17V195Zm0-15H193v8h17v-8Zm39,15H235V180H217v56l11,12h21V229H235V213h14V195Zm46,0H267l-11,11v30l12,12h27V229H275V213h20V195Zm59,11-12-11H321V180H302v68h19V213h14v35h19V206Z" transform="translate(-72 -91)"/></svg>