<svg id="Layer_1" data-name="Layer 1" xmlns="http://www.w3.org/2000/svg" viewBox="0 0 91.21 91.21"><defs><style>.cls-1{fill:#fff;}</style></defs><title>Artboard 1</title><path class="cls-1" d="M89.48,15.73a4.07,4.07,0,1,1-8.13.4,2.67,2.67,0,0,1,0-.4,4.07,4.07,0,1,1,8.13-.4A2.67,2.67,0,0,1,89.48,15.73Zm-7.51,0a3.45,3.45,0,1,0,3.45-3.45A3.44,3.44,0,0,0,82,15.73Zm3.5-2.08c1.07,0,1.39.56,1.39,1.14a1.22,1.22,0,0,1-.73,1.11l.94,1.78h-.71l-.81-1.59h-.87v1.59h-.59v-4Zm-.79,1.89h.75a.72.72,0,0,0,.79-.65v-.05c0-.38-.2-.64-.79-.64h-.75Z"/><path class="cls-1" d="M43.67,3.52A42.08,42.08,0,0,0,1.73,42.23l22.55,9.33A11.86,11.86,0,0,1,31,49.48h.66L41.68,35v-.2A15.87,15.87,0,1,1,57.59,50.63h-.4l-14.3,10.2v.56A11.91,11.91,0,0,1,19.3,63.74L3.18,57.07A42.08,42.08,0,1,0,43.67,3.52Z"/><path class="cls-1" d="M28.1,67.38l-5.17-2.14A8.94,8.94,0,1,0,27.82,53l5.34,2.21A6.59,6.59,0,1,1,28.1,67.38Z"/><path class="cls-1" d="M68.13,34.76A10.58,10.58,0,1,0,57.54,45.33h0A10.61,10.61,0,0,0,68.13,34.76Zm-18.5,0a7.94,7.94,0,1,1,7.94,7.94h0a7.93,7.93,0,0,1-7.94-7.92v0Z"/></svg>