<svg id="Ebene_1" data-name="Ebene 1" xmlns="http://www.w3.org/2000/svg" viewBox="0 0 1024 1024"><defs><style>.cls-1{fill:#fff;}</style></defs><title>Twitter</title><path class="cls-1" d="M512,0C229.23,0,0,229.23,0,512s229.23,512,512,512,512-229.23,512-512S794.77,0,512,0ZM769.15,414.93q.36,7.94.35,15.95c0,163.1-124.15,351.18-351.18,351.18a349.4,349.4,0,0,1-189.2-55.44,251.08,251.08,0,0,0,29.44,1.71,247.71,247.71,0,0,0,153.3-52.83,123.56,123.56,0,0,1-115.3-85.73,123.13,123.13,0,0,0,55.73-2.11,123.49,123.49,0,0,1-99-121c0-.54,0-1.06,0-1.57a122.65,122.65,0,0,0,55.9,15.44A123.55,123.55,0,0,1,271,315.74a350.44,350.44,0,0,0,254.41,129A123.51,123.51,0,0,1,735.74,332.13a247.13,247.13,0,0,0,78.37-30,123.84,123.84,0,0,1-54.27,68.28A246.41,246.41,0,0,0,830.72,351,251.27,251.27,0,0,1,769.15,414.93Z"/></svg>