<svg id="modis_Layer_1" data-name="Layer 1" xmlns="http://www.w3.org/2000/svg" viewBox="0 0 284 94"><defs><style>.modis-cls-1{fill:#fff;}.modis-cls-2{fill:#fdb71a;}</style></defs><title>Artboard 1</title><path class="modis-cls-1" d="M23.35,37.9c-3.07,0-9.37,4.5-9.37,8.22V89a2.68,2.68,0,0,1-2.8,2.82H4.5A2.69,2.69,0,0,1,1.68,89V44.06c0-7.94,14.1-17.56,21.43-17.56,5.12,0,12,4.61,15.76,8.84C42.6,31,49.78,26.5,54.52,26.5c7.32,0,21.42,9.62,21.42,17.56V89a2.69,2.69,0,0,1-2.83,2.82H66.45A2.7,2.7,0,0,1,63.62,89V46c0-3.58-6.28-8.08-9.36-8.08C51.45,37.9,45,42.4,45,46V89a2.77,2.77,0,0,1-2.83,2.82H35.54A2.63,2.63,0,0,1,32.71,89V46.12C32.71,42.53,26.17,37.9,23.35,37.9Zm113.4,6.94V74.59c0,8.33-15,18.34-22.46,18.34s-22.44-10-22.44-18.34V44.84c0-8.47,15-18.34,22.44-18.34S136.75,36.24,136.75,44.84Zm-12.32,1.79c0-4-6.8-8.73-10.14-8.73s-10.13,4.75-10.13,8.73V72.79c0,4,6.54,8.73,10.13,8.73s10.14-4.75,10.14-8.73Zm60-42.07a2.77,2.77,0,0,1,2.82-2.82H194a2.7,2.7,0,0,1,2.82,2.82V74.71c0,8.21-14.62,18.22-22.32,18.22S152,82.92,152,74.59V44.7c0-8.58,14.25-18.2,20.92-18.2,3.72,0,8.84,2.81,11.54,5.63ZM164.33,73c0,3.6,6.53,8.48,10.12,8.48s10-5,10-8.48V46.37c0-3.72-6.81-8.47-10.13-8.47s-10,4.75-10,8.47ZM226.4,30.47a2.7,2.7,0,0,0-2.82-2.83h-6.66a2.71,2.71,0,0,0-2.84,2.83V89a2.7,2.7,0,0,0,2.84,2.82h6.66A2.69,2.69,0,0,0,226.4,89Zm26.81,14.75v2.31c0,2.44,2.43,3.72,5.14,4.75l14.23,5.37c5.51,2.06,9.74,6.3,9.74,12.2v6.53c0,6.67-13.08,16.55-21.17,16.55-5.13,0-12.69-3.46-17.44-5.78a3.6,3.6,0,0,1-1.92-4.73l1.79-4.11c.78-1.93,2.83-2.44,4.75-1.54,3.72,1.8,9.88,4.75,12.82,4.75s9.24-4.11,9.24-6.93v-3c0-2.94-2.94-4.36-5.89-5.51L251,60.87c-5-2.06-9.86-6.15-9.86-11.68V43.42c0-7.3,14.61-16.92,21.15-16.92,4.76,0,12.06,2.95,17.2,5.51a3.39,3.39,0,0,1,1.39,4.23l-1.53,4.23c-.64,1.67-2.95,2.18-4.74,1.54-3.47-1.54-9.37-4.11-12.32-4.11C259.74,37.9,253.21,42.14,253.21,45.22Z"/><path class="modis-cls-2" d="M228.13,9a7.92,7.92,0,1,1-7.92-7.92A7.92,7.92,0,0,1,228.13,9Z"/></svg>
