<svg xmlns="http://www.w3.org/2000/svg" viewBox="0 0 555.1 83.93"><defs><style>.cls-1-paysafe{fill:#fff;}</style></defs><g id="Layer_2_Paysafe" data-name="Layer 2"><g id="Layer_1-2_Paysafe" data-name="Layer 1"><path class="cls-1-paysafe" d="M311.57,36.82a9.19,9.19,0,1,0-9.19-9.19A9.18,9.18,0,0,0,311.57,36.82Z"/><path class="cls-1-paysafe" d="M311.57,47.2a9.19,9.19,0,1,0,9.18,9.19A9.18,9.18,0,0,0,311.57,47.2Z"/><path class="cls-1-paysafe" d="M224.36,17.65V19.5h-7.5v9.62h7.5V64.51h14V29.12h9.71V19.5h-9.71V17.12c0-4,1.59-6.79,5.92-6.79a15.87,15.87,0,0,1,4.15.61V.88A25.27,25.27,0,0,0,241.75,0C230.36,0,224.36,7,224.36,17.65ZM148.62,32.21c0-2.11,2.11-3.44,5.64-3.44a27.55,27.55,0,0,1,10.42,2.56l4-9.27a35.6,35.6,0,0,0-15.09-3.61c-10.5,0-19,4.76-19,14.29,0,15,21.18,12.27,21.18,18.89,0,2.47-2.47,3.71-6.61,3.71a26.42,26.42,0,0,1-11.48-3l-4.5,9.09a37.24,37.24,0,0,0,17.21,4.14c10.24,0,19.06-5.29,19.06-15C169.44,35.74,148.62,38.22,148.62,32.21ZM196,18.45a37.85,37.85,0,0,0-19.86,5.38l3.89,8c2.56-1.15,7.94-3.18,12.53-3.18,3.26,0,6.18,1.15,6.18,4.59v3c-19.47-1.38-25.06,7.18-25.06,15.09,0,7.73,6.54,14.21,15.15,14.21a19.62,19.62,0,0,0,9.91-3v2h14.12V33.18C212.82,23,206.37,18.45,196,18.45Zm2.74,36.18a9.73,9.73,0,0,1-5.56,1.77c-3.53,0-5.92-2-5.92-5.3,0-3.71,2.92-7.33,11.48-5.91ZM67,18.45a37.85,37.85,0,0,0-19.86,5.38l3.89,8c2.56-1.15,7.94-3.18,12.53-3.18,3.27,0,6.18,1.15,6.18,4.59v3C50.29,34.89,44.7,43.45,44.7,51.36c0,7.73,6.54,14.21,15.15,14.21a19.59,19.59,0,0,0,9.91-3v2H83.88V33.18C83.88,23,77.44,18.45,67,18.45Zm3.26,36.18a9.68,9.68,0,0,1-5.56,1.77c-3.53,0-5.91-2-5.91-5.3,0-3.71,2.92-7.33,11.47-5.91Zm-46.89-51H0V64.51H14.47V42.27h8.92C35.12,42.27,44,35,44,22.5,44,11.74,37.33,3.62,23.39,3.62ZM21.8,31.68H14.47V14.21H21.8c5.21,0,8.12,3.62,8.12,8.83C29.92,28.6,26.65,31.68,21.8,31.68ZM120.06,19.5l-9.71,26.9L99.2,19.5H84.74l19,42.9L97.84,77.14h13.44L134.09,19.5Zm151.39-1.05c-12.54,0-22.24,10-22.24,23.82,0,14.21,9.18,23.3,23.83,23.3h0c4.08,0,12.16-.73,18.39-5l-3.94-8.75a25.16,25.16,0,0,1-12.34,3.48h0c-.33,0-.66,0-1,0l-.22,0c-.31,0-.61-.05-.91-.09l-.2,0-.71-.13-.25-.05c-.24,0-.48-.12-.71-.18l-.38-.12-.49-.18c-.19-.07-.37-.15-.54-.23l-.16-.07a9.08,9.08,0,0,1-.82-.44l0,0a9.05,9.05,0,0,1-1.58-1.21h0c-.2-.2-.38-.39-.56-.59l-.19-.24-.3-.38c-.15-.22-.31-.44-.45-.68h0a13.64,13.64,0,0,1-1.7-5.71h29.26V41.32C293.21,28.12,284,18.45,271.45,18.45Zm-7.5,19c.52-6,3.61-9.09,7.5-9.09s7,3.09,7.5,9.09Zm94.18,18.45-10.68-.45c-1.76-.08-4.24-.35-4.24-2.29a3.09,3.09,0,0,1,1.42-2.29,23.63,23.63,0,0,0,5.73.7c10.24,0,18.62-6.71,18.62-16.15a13.9,13.9,0,0,0-1.41-6.27h5.65V19.5H356.89a24.45,24.45,0,0,0-7.06-1.05c-10.23,0-18.8,6.26-18.8,16.68a15.19,15.19,0,0,0,6.36,12.7c-3.35,2.65-5.56,5.74-5.56,9a7.14,7.14,0,0,0,2.65,5.56c-3.89,2-7.24,5.47-7.24,9.88,0,7.42,9.53,11.65,21.62,11.65,14.74,0,24.45-6.26,24.45-16.06C373.31,60.72,368.19,56.31,358.13,55.87ZM350,28.42c3.79,0,6.53,2.91,6.53,7.06s-2.74,7.06-6.53,7.06-6.53-2.91-6.53-7.06S346.22,28.42,350,28.42Zm0,46.69c-6.62,0-11.21-1.68-11.21-5a6.48,6.48,0,0,1,2.56-4.59l2.65.18,12.88.8C359.54,66.72,361,68,361,70,361,73.87,355.66,75.11,350,75.11Zm42.65-47.4V19.5H379.25v45h14.12V35.39a14.9,14.9,0,0,1,10.15-4,22.68,22.68,0,0,1,3.53.18V18.45C401,18.45,395.57,22.15,392.66,27.71Zm96.57,23.65c-2.12,1.86-5.65,3.8-8.65,3.8-3.17,0-4.85-2-4.85-5V19.5H461.61V50.57c0,12.27,7.94,15,13.68,15,6.09,0,10.94-3.09,14.56-6.17v5.11h13.5v-45H489.23Zm47.25-32.91c-5.92,0-9.36,2.91-11.74,5.11V19.5H510.62V80.56h14.12V64.69a22.3,22.3,0,0,0,6.26.88c12,0,24.1-8.2,24.1-25.15C555.1,27.45,547.42,18.45,536.48,18.45Zm-7,37.06a11.59,11.59,0,0,1-4.76-1V31.15a13.07,13.07,0,0,1,6.79-2.29c4.33,0,8.65,3.44,8.65,12.36C540.18,51.19,534.89,55.51,529.5,55.51ZM433,18.45c-13.86,0-23.74,8.73-23.74,23.56S419.12,65.57,433,65.57,456.8,56.93,456.8,42,446.83,18.45,433,18.45Zm0,36.89c-6.27,0-8.74-5.83-8.74-13.24,0-7.77,2.73-13.33,8.74-13.33s8.73,5.56,8.73,13.33C441.71,49.6,439.24,55.34,433,55.34Z"/></g></g></svg>
