<svg id="vmware_svg" data-name="vmware_svg" xmlns="http://www.w3.org/2000/svg" viewBox="0 0 342.69 52.19"><defs><style>.vmware-cls-1{fill:#fff;}</style></defs><title>VMware</title><path class="vmware-cls-1" d="M147.37,48.78,132.37,7a6.65,6.65,0,0,1-.48-2,3.63,3.63,0,0,1,3.72-3.53,3.86,3.86,0,0,1,3.73,3.05l12.43,36,12.52-36.1a3.76,3.76,0,0,1,3.63-2.95h.38a3.9,3.9,0,0,1,3.83,3l12.42,36.1L197.18,4.32a3.6,3.6,0,0,1,3.53-2.86,3.52,3.52,0,0,1,3.64,3.43,7,7,0,0,1-.48,2l-15.1,41.88c-.77,2.18-2.3,3.33-4,3.33h-.29c-1.91,0-3.35-1.15-4-3.33L168.12,13.27,155.69,48.78c-.67,2.18-2.11,3.33-4,3.33h-.19c-1.82,0-3.34-1.15-4.11-3.33" transform="translate(-0.15 -0.4)"/><path class="vmware-cls-1" d="M256.75,5.1a3.69,3.69,0,1,1,7.37,0v8.48c3.63-8.24,11.7-12.12,17-12.12a3.54,3.54,0,0,1,3.65,3.73,3.66,3.66,0,0,1-3.27,3.73c-9.58,1.15-17.42,8.33-17.42,22.61V48.31a3.69,3.69,0,1,1-7.37,0V5.1" transform="translate(-0.15 -0.4)"/><path class="vmware-cls-1" d="M308.46,52.51c-13.32,0-24.21-10.34-24.21-25.5v-.19c0-14.12,9.85-25.49,23.27-25.49C321.87,1.33,330,13.17,330,26.16a3.4,3.4,0,0,1-3.38,3.42H291.58c1,10.6,8.43,16.58,17.07,16.58a19.76,19.76,0,0,0,14-5.69,3.11,3.11,0,0,1,5.25,2.28,3.1,3.1,0,0,1-1.13,2.36,24.5,24.5,0,0,1-18.29,7.4m14.36-28.34c-.75-8.91-5.83-16.68-15.49-16.68-8.44,0-14.83,7.1-15.75,16.68Z" transform="translate(-0.15 -0.4)"/><path class="vmware-cls-1" d="M204.48,37.17V37c0-10.4,8.59-15.94,21.09-15.94a52.52,52.52,0,0,1,15.19,2.1V21.41c0-8.88-5.45-13.46-14.7-13.46a25,25,0,0,0-11.49,2.25,3.81,3.81,0,0,1-1.33.29A3.27,3.27,0,0,1,210,7.34a3,3,0,0,1,2-3.07c4.85-2.1,8.52-2.81,14.82-2.81,7,0,12.31,1.81,15.93,5.44,3.35,3.34,5.07,8.12,5.07,14.42V48.56a3.49,3.49,0,0,1-3.54,3.62,3.39,3.39,0,0,1-3.52-3.44V44a21.6,21.6,0,0,1-17.84,8.5c-9.17,0-18.44-5.25-18.44-15.36m36.37-3.82V28.57a51.52,51.52,0,0,0-14.51-2.1c-9.25,0-14.42,4-14.42,10.21v.19c0,6.21,5.73,9.84,12.42,9.84,9.06,0,16.51-5.54,16.51-13.36" transform="translate(-0.15 -0.4)"/><path class="vmware-cls-1" d="M13.63,4.55A7,7,0,0,0,4.29,1.06,6.82,6.82,0,0,0,.87,10.41L16.53,44.46C19,49.8,21.59,52.6,26.46,52.6c5.21,0,7.48-3.05,9.94-8.14,0,0,13.67-29.75,13.8-30.06a2,2,0,0,1,2-1.27,2.18,2.18,0,0,1,2.17,2.2v29.1c0,4.49,2.48,8.17,7.27,8.17S69,48.92,69,44.43V20.63c0-4.6,3.28-7.57,7.77-7.57s7.47,3.08,7.47,7.57v23.8c0,4.49,2.49,8.17,7.27,8.17s7.38-3.68,7.38-8.17V20.63c0-4.6,3.28-7.57,7.77-7.57s7.47,3.08,7.47,7.57v23.8c0,4.49,2.49,8.17,7.27,8.17s7.37-3.68,7.37-8.17V17.34c0-10-8-16.94-17.64-16.94A22.65,22.65,0,0,0,95.46,7.06C92.26,2.91,87.84.41,80.37.41c-7.89,0-14.79,6.65-14.79,6.65A17.72,17.72,0,0,0,52.39.41c-7,0-12.54,3.07-15.92,10.82l-10,23.58L13.63,4.55" transform="translate(-0.15 -0.4)"/><path class="vmware-cls-1" d="M330.64,7.51v0a6.11,6.11,0,1,1,12.21,0v0a6.14,6.14,0,0,1-6.11,6.15,6.07,6.07,0,0,1-6.1-6.1m11,0h0a4.91,4.91,0,0,0-4.93-5,5,5,0,0,0-4.95,5v0a4.94,4.94,0,1,0,9.88,0" transform="translate(-0.15 -0.4)"/><path class="vmware-cls-1" d="M334.4,5.05a.64.64,0,0,1,.66-.65h2a2.28,2.28,0,0,1,1.72.6,1.83,1.83,0,0,1,.52,1.35v0a1.82,1.82,0,0,1-1.18,1.8l.9,1.09a.82.82,0,0,1,.21.5.61.61,0,0,1-.62.6A.83.83,0,0,1,338,10l-1.26-1.61h-1V9.71a.66.66,0,0,1-1.31,0ZM337,7.27c.63,0,1-.33,1-.84v0c0-.55-.37-.84-1-.84h-1.29v1.7Z" transform="translate(-0.15 -0.4)"/></svg>
