<svg id="Layer_1" data-name="Layer 1" xmlns="http://www.w3.org/2000/svg" viewBox="0 0 800 244"><path d="M35.8,58.8c.46-.14.93-.27,1.39-.39h0A29.55,29.55,0,1,0,0,29.86l0,.07V85.09A66,66,0,0,1,35.8,58.8Z"/><path d="M72.43,185.2c-.47.14-.93.27-1.4.39h0a29.55,29.55,0,1,0,37.18,28.55l0-.07V158.91a66,66,0,0,1-35.8,26.29Z"/><path d="M191.7,119.33a12.65,12.65,0,0,0,6.08-5.91,22.63,22.63,0,0,0,2-10.11v-2.84q0-9.31-4.43-13.81t-14.09-4.48H162.39v79.53H182q9.32,0,14.15-4.83t4.83-14v-6.48Q201,123,191.7,119.33ZM174.89,93.54h6a5.81,5.81,0,0,1,4.83,1.93q1.53,1.94,1.53,6.25v4.43q0,4.55-1.88,6.48c-1.24,1.28-3.12,1.93-5.62,1.93h-4.88Zm13.63,49c0,2.88-.53,4.9-1.59,6.08a6.28,6.28,0,0,1-4.89,1.76h-7.15V125.92h5.56q4.32,0,6.19,2.1t1.88,7.56Z"/><polygon points="226.35 161.71 260.44 161.71 260.44 150.35 238.85 150.35 238.85 127.06 256.01 127.06 256.01 115.69 238.85 115.69 238.85 93.54 260.44 93.54 260.44 82.18 226.35 82.18 226.35 161.71"/><polygon points="298.5 82.18 286 82.18 286 161.71 319.06 161.71 319.06 150.35 298.5 150.35 298.5 82.18"/><polygon points="354.85 82.18 342.36 82.18 342.36 161.71 375.42 161.71 375.42 150.35 354.85 150.35 354.85 82.18"/><path d="M423.59,143.53q0,7.72-6.48,7.73t-6.47-7.73V82.18h-12.5v60.55q0,9.66,4.77,14.83t13.86,5.17q9.09,0,13.86-5.17t4.78-14.83V82.18H423.59Z"/><polygon points="488.24 138.65 479.04 82.18 461.65 82.18 461.65 161.71 472.56 161.71 472.56 105.47 481.88 161.71 493.69 161.71 502.33 104.67 502.33 161.71 514.14 161.71 514.14 82.18 496.76 82.18 488.24 138.65"/><path d="M594.13,81.27q-9.09,0-13.86,5.17t-4.78,14.82v41.36q0,9.66,4.78,14.83t13.86,5.17q9.09,0,13.86-5.17t4.77-14.83V117.4h-17.5v11.36h5.68v14.66q0,7.72-6.47,7.72T588,143.42V100.47q0-7.84,6.48-7.84t6.47,7.84V109h11.82v-7.73q0-9.65-4.77-14.82T594.13,81.27Z"/><polygon points="638.66 161.71 672.75 161.71 672.75 150.35 651.16 150.35 651.16 127.06 668.32 127.06 668.32 115.69 651.16 115.69 651.16 93.54 672.75 93.54 672.75 82.18 638.66 82.18 638.66 161.71"/><polygon points="726.72 129.78 713.88 82.18 698.2 82.18 698.2 161.71 709.45 161.71 709.45 104.11 725.01 161.71 737.85 161.71 737.85 82.18 726.72 82.18 726.72 129.78"/><path d="M798.07,132.51a29.26,29.26,0,0,0-4.66-7.56,97.3,97.3,0,0,0-7.16-7.21,54.34,54.34,0,0,1-8-8.52,14.7,14.7,0,0,1-2.67-8.75q0-4.09,1.59-6a6.74,6.74,0,0,1,9.32,0q1.59,1.88,1.59,6v3.29h11.82v-2.5q0-9.65-4.66-14.82t-13.75-5.17q-9.09,0-13.75,5.17t-4.66,14.82A25.09,25.09,0,0,0,765,111.38a29,29,0,0,0,4.65,7.55,97.23,97.23,0,0,0,7.16,7.22,54.34,54.34,0,0,1,8,8.52,14.68,14.68,0,0,1,2.67,8.75q0,7.72-6.47,7.72t-6.48-7.72v-5.68H762.73v4.88q0,9.66,4.78,14.83t13.86,5.17q9.09,0,13.86-5.17T800,142.62A25,25,0,0,0,798.07,132.51Z"/><path d="M54.11,67.89A54.11,54.11,0,1,0,108.23,122,54.11,54.11,0,0,0,54.11,67.89Zm36,53.18v7a4.67,4.67,0,0,1-4.46,4.66l-5.19.24a16.06,16.06,0,0,0-15.33,15.33l-.24,5.21a4.66,4.66,0,0,1-4.66,4.45H48.06a4.66,4.66,0,0,1-4.66-4.45l-.23-5.2A16.09,16.09,0,0,0,27.84,133l-5.22-.23a4.67,4.67,0,0,1-4.45-4.67V116a4.66,4.66,0,0,1,4.45-4.66l5.2-.24A16.07,16.07,0,0,0,43.15,95.72l.24-5.21a4.67,4.67,0,0,1,4.66-4.46H60.16a4.67,4.67,0,0,1,4.66,4.46l.24,5.2A16.08,16.08,0,0,0,80.39,111l5.21.23a4.67,4.67,0,0,1,4.46,4.67Z"/></svg>