<?xml version="1.0" encoding="utf-8"?>
<!-- Generator: Adobe Illustrator 28.0.0, SVG Export Plug-In . SVG Version: 6.00 Build 0)  -->
<svg version="1.1" id="图层_1" xmlns="http://www.w3.org/2000/svg" xmlns:xlink="http://www.w3.org/1999/xlink" x="0px" y="0px"
	 viewBox="0 0 400 82" style="enable-background:new 0 0 400 82;" xml:space="preserve">
<style type="text/css">
	.st0{fill:#0A8786;}
	.st1{fill:#FFFFFF;}
</style>
<g>
	<g>
		<polygon class="st0" points="348.4,41 348.4,31 368.4,31 368.4,21 368.4,1 358.4,1 358.4,21 338.4,21 338.4,51 368.4,51 368.4,41 
					"/>
		<polygon class="st0" points="368.4,51 368.4,81 378.4,81 378.4,61 398.4,61 398.4,51 		"/>
	</g>
	<path class="st1" d="M33.6,21h-32v40h32c5.2,0,9.5-4.2,9.5-9.5v-21C43,25.3,38.8,21,33.6,21z M35.9,49.8c0,2.2-1.8,4-4,4H8.7V28.1
		h23.2c2.2,0,4,1.8,4,4V49.8z"/>
	<path class="st1" d="M225.8,28.2h-15.4c-5.2,0-9.5,4.2-9.5,9.5v13.9c0,5.2,4.2,9.5,9.5,9.5h15.4c5.2,0,9.5-4.2,9.5-9.5V37.6
		C235.3,32.4,231,28.2,225.8,28.2z M228.2,50.6c0,1.8-1.4,3.2-3.2,3.2h-13.6c-1.8,0-3.2-1.4-3.2-3.2V38.5c0-1.8,1.4-3.2,3.2-3.2H225
		c1.8,0,3.2,1.4,3.2,3.2V50.6z"/>
	<path class="st1" d="M265.1,28.2h-15.4c-5.2,0-9.5,4.2-9.5,9.5v13.9c0,5.2,4.2,9.5,9.5,9.5h15.4c5.2,0,9.5-4.2,9.5-9.5V37.6
		C274.6,32.4,270.3,28.2,265.1,28.2z M267.5,50.6c0,1.8-1.4,3.2-3.2,3.2h-13.6c-1.8,0-3.2-1.4-3.2-3.2V38.5c0-1.8,1.4-3.2,3.2-3.2
		h13.6c1.8,0,3.2,1.4,3.2,3.2V50.6z"/>
	<path class="st1" d="M289.9,53.9c-1.8,0-3.2-1.4-3.2-3.2V28.1h-7.1v23.4c0,5.2,4.2,9.5,9.5,9.5h19.9v-7.1H289.9z"/>
	<path class="st1" d="M158.1,30.5v21c0,5.2,4.2,9.5,9.5,9.5H196v-7.1h-26.7c-2.2,0-4-1.8-4-4V32.1c0-2.2,1.8-4,4-4H196V21h-28.4
		C162.3,21,158.1,25.2,158.1,30.5z"/>
	<path class="st1" d="M48,37.6v13.8c0,5.2,4.3,9.5,9.5,9.5h21.2v-7.1H58.4c-1.8,0-3.2-1.4-3.2-3.2v-2.5H78V41H55.1v-2.5
		c0-1.8,1.4-3.2,3.2-3.2h20.4v-7.1H57.5C52.3,28.1,48,32.4,48,37.6z"/>
	<path class="st1" d="M83.8,37.6v13.8c0,5.2,4.3,9.5,9.5,9.5h21.2v-7.1H94.1c-1.8,0-3.2-1.4-3.2-3.2v-2.5h22.8V41H90.9v-2.5
		c0-1.8,1.4-3.2,3.2-3.2h20.4v-7.1H93.3C88,28.1,83.8,32.4,83.8,37.6z"/>
	<path class="st1" d="M143.6,28.1l-24.1,0v11.4v14.1V61h7.1v-7.2l17,0c5.2,0,9.5-4.2,9.5-9.5v-6.8C153.1,32.4,148.8,28.1,143.6,28.1
		z M146,43.5c0,1.8-1.4,3.2-3.2,3.2l-16.1,0v-7.1v-4.3l16.1,0c1.8,0,3.2,1.4,3.2,3.2V43.5z"/>
</g>
</svg>
