<svg id="Omen_Layer_1" data-name="Layer 1" xmlns="http://www.w3.org/2000/svg" viewBox="0 0 576 144"><defs><style>.omen-cls-1{fill:#fff;}</style></defs><title>Artboard 1</title><path class="omen-cls-1" d="M79.63,82.43c0,11.7-8,22.26-20.68,22.26S38,94,38,82.15v-.29c0-11.69,8-22.25,20.69-22.25s21,10.7,21,22.54Zm33.66-.28v-.29c0-28.95-23.53-51.78-54.34-51.78S4.32,53.19,4.32,82.15v.28c0,29,23.54,51.79,54.35,51.79s54.62-23.11,54.62-52.07m88.3,49.93h33.23V32.22H200l-21.4,35.09-21.4-35.09h-34.8v99.86h32.66V82.58l23,35.52h.57l23-35.52Zm44.64,0h85.86V104.69H279V93.85h48.78V69.74H279V59.61h52.35V32.22H246.23Zm165,0h29.66V32.22H407.83V76.3L372.32,32.22H341.08v99.86h33.09V86ZM564.65,82.15a1.06,1.06,0,0,1-.3.73l-28.88,28.87c.24-7.65-3.11-13-5.12-16.15-1.19-1.88-2-3.13-1.38-3.72a.78.78,0,0,1,.59-.26h.1c1.54.16,4,3.87,6.2,7.15,2,3,3.66,5.5,4.69,5.6a.56.56,0,0,0,.49-.18c1.24-1.24-1.33-5-3.6-8.25-1.15-1.67-2.25-3.25-2.25-3.77,0,0,0,0,0,0,.31-.16,2.09,1.07,3.53,2,3,2.09,5.26,3.51,6,2.81.91-.91,1.33-5.44.15-8.3a3.87,3.87,0,0,0-3.63-2.74c-1.2,0-1.9-.22-2.15-.67-.48-.89.72-2.76,2.1-4.92,1.91-3,4.3-6.71,4.3-10.5a3.39,3.39,0,0,0-1.57-3.22c-3.63-2.06-13.59,1.82-30.44,11.88a.43.43,0,0,1-.44,0,.42.42,0,0,1-.23-.39V29.86l11,11a1.6,1.6,0,0,1,.24,2c-2,3.32-5.23,10.7-5.24,16.34v.14H519v-.11a35,35,0,0,1,8.48-12.37,1.6,1.6,0,0,1,2.25,0l3.73,3.73A1.61,1.61,0,0,1,534,51.9a1.64,1.64,0,0,1-.77,1.2c-4.53,2.77-11,9.56-13.32,15.24v.2h.2l0,0c6.28-6.29,12.92-10.66,18.22-12a1.59,1.59,0,0,1,1.52.42l24.51,24.51a1,1,0,0,1,.3.73m-38-1.59a2.49,2.49,0,0,0-2.47,1.72,1.9,1.9,0,0,1-2.77,1,1.91,1.91,0,0,1-.73-2.33,6.39,6.39,0,0,1,12,0,1.94,1.94,0,0,1-.9,2.42,1.88,1.88,0,0,1-2.61-1,2.48,2.48,0,0,0-2.47-1.72M512.79,83.1c6.85.81,8.66,6.14,8.66,8.86v.09l.07,0a12.2,12.2,0,0,1,6.24,10.37c0,.7-.24,1.17-.52,1.28s-.6-.15-.82-.38-.57-.58-.9-.92c-2.48-2.57-6.62-6.87-11.37-7.66a1.6,1.6,0,0,1-1.36-1.57Zm0,17.32c4.78.32,9.13,4.47,11.31,6.94,3.33,3.77,5.47,7.83,5.87,9.89l-17.18,17.19V132.1l2.36-2.09a.8.8,0,0,0,.11-1.11.77.77,0,0,0-.54-.29.82.82,0,0,0-.57.16l-1.36.92v-5.58a1.46,1.46,0,0,1,1.46-1.46,6,6,0,0,0,6-6v-2.48a6,6,0,0,0-6-6,1.45,1.45,0,0,1-1.46-1.45Zm-3,34-17.18-17.18c.42-2.1,2.55-6.14,5.88-9.9,2.18-2.47,6.53-6.63,11.3-6.94v6.34a1.45,1.45,0,0,1-1.45,1.45,6,6,0,0,0-6,6v2.48a6,6,0,0,0,6,6,1.46,1.46,0,0,1,1.45,1.46v5.58l-1.35-.91a.81.81,0,0,0-.58-.17.79.79,0,0,0-.54.29.8.8,0,0,0,.11,1.11l2.36,2.09Zm0-41.23a1.6,1.6,0,0,1-1.36,1.57c-4.75.79-8.89,5.09-11.37,7.66-.33.34-.63.66-.9.92s-.55.48-.82.38-.47-.58-.51-1.28c-.19-2.72,1.65-7.89,6.2-10.36h.1V92c0-2.72,1.82-8,8.66-8.86Zm-16.3-10.93a1.86,1.86,0,0,1-1.07,1.11,1.88,1.88,0,0,1-1.54-.06,1.94,1.94,0,0,1-.89-2.42,6.39,6.39,0,0,1,11.95,0,1.93,1.93,0,0,1-.74,2.33,1.9,1.9,0,0,1-2.77-1,2.63,2.63,0,0,0-4.94,0m16.3-4.16a.43.43,0,0,1-.22.39.45.45,0,0,1-.45,0c-16.85-10.06-26.81-13.94-30.44-11.88a3.38,3.38,0,0,0-1.56,3.22c0,3.79,2.38,7.51,4.29,10.5,1.39,2.16,2.58,4,2.1,4.92-.25.45-1,.67-2.14.67a3.87,3.87,0,0,0-3.64,2.74c-1.18,2.86-.76,7.39.15,8.3.7.7,2.91-.72,6-2.81,1.44-1,3.24-2.21,3.54-2a.2.2,0,0,1,0,0c0,.52-1.09,2.1-2.25,3.77-2.27,3.29-4.84,7-3.6,8.25a.58.58,0,0,0,.49.18c1-.1,2.73-2.65,4.7-5.6,2.18-3.28,4.65-7,6.2-7.15a.84.84,0,0,1,.69.26c.59.59-.2,1.84-1.39,3.72-2,3.19-5.36,8.5-5.12,16.15L458.19,82.88a1.06,1.06,0,0,1-.3-.73,1,1,0,0,1,.3-.73L482.7,56.91a1.65,1.65,0,0,1,1.14-.47,1.58,1.58,0,0,1,.38.05c5.3,1.35,11.94,5.72,18.22,12l.23-.15c-2.35-5.69-8.78-12.48-13.32-15.26a1.61,1.61,0,0,1-.31-2.52c1.18-1.17,2.7-2.69,3.73-3.73a1.62,1.62,0,0,1,2.25,0,34.85,34.85,0,0,1,8.49,12.4l.27-.05c0-5.65-3.21-13-5.24-16.35a1.6,1.6,0,0,1,.24-2l11-11Zm61.93,4a1.34,1.34,0,0,0-.38-.93l-59.1-59.1a1.31,1.31,0,0,0-1.85,0l-59.1,59.1a1.31,1.31,0,0,0-.39.93,1.27,1.27,0,0,0,.39.92l59.1,59.1a1.28,1.28,0,0,0,.92.39,1.32,1.32,0,0,0,.93-.39l59.1-59.1a1.3,1.3,0,0,0,.38-.92"/><path class="omen-cls-1" d="M9,1.66c4.49,0,6.59,1.62,6.59,5.55V8.92c0,3.84-2.17,5.63-6.59,5.63H7.72v5.69H4.32V1.66Zm0,9.68c2.42,0,3.21-.82,3.21-2.58V7.38c0-1.76-.58-2.68-3.16-2.68H7.7v6.64Z"/><path class="omen-cls-1" d="M19.23,14.86V7c0-3.93,1.72-5.55,6.21-5.55S31.78,3.06,31.78,7v7.87c0,3.84-1.93,5.55-6.34,5.55S19.23,18.7,19.23,14.86Zm9.22-.17V7.16c0-1.69-.43-2.77-3-2.77-2.42,0-2.88,1.08-2.88,2.77v7.53c0,1.76.46,2.78,2.88,2.78S28.45,16.45,28.45,14.69Z"/><path class="omen-cls-1" d="M42.64,20.27h-3.5L34.22,1.66h3.42l1.84,6.42,1.33,7.58,3-13.4h2.56l3.28,13.4,1.08-7.58,1.84-6.42H56L51.38,20.27H47.85l-2.72-10Z"/><path class="omen-cls-1" d="M69.93,1.66v2.9H62.57V9.33h6.28v3H62.57v4.9h7.7v3h-11V1.66Z"/><path class="omen-cls-1" d="M82.31,20.24,78.62,13.7H77.39v6.54H74.06V1.66h4.68c4.49,0,6.59,1.64,6.59,5.58v1c0,2.75-1,4.25-3.21,5l4.08,7.07Zm-3.57-9.6c2.41,0,3.09-.85,3.09-2.61V7.4c0-1.76-.46-2.67-3-2.67H77.36v5.91Z"/><path class="omen-cls-1" d="M100.29,1.66v2.9H92.93V9.33H99.2v3H92.93v4.9h7.7v3h-11V1.66Z"/><path class="omen-cls-1" d="M110.54,1.66c4.49,0,6.35,1.62,6.35,5.55v7.58c0,3.84-1.93,5.45-6.35,5.45h-6.1V1.66Zm0,15.57c2.41,0,3-.85,3-2.61V7.38c0-1.76-.39-2.68-3-2.68h-2.85V17.23Z"/><path class="omen-cls-1" d="M128.08,1.66h5.53c3.35,0,5.48,2,5.48,4.92a3.49,3.49,0,0,1-1.69,3.26,4.41,4.41,0,0,1,3.4,4.64c0,4.17-2.1,5.76-6.59,5.76h-6.13Zm3.31,15.57h2.87c2.58,0,3-.92,3-2.68s-.6-2.68-3-2.68h-2.82Zm0-12.72V8.8h2.22a2,2,0,0,0,2-2.17,1.91,1.91,0,0,0-2-2.12Z"/><path class="omen-cls-1" d="M154.65,1.66,150,12.47v7.8h-3.31v-7.8L141.93,1.66h3.6L147,5.09l1.35,4L149.68,5l1.38-3.33Z"/></svg>
