<?xml version="1.0" encoding="UTF-8"?>
<svg id="Ebene_1" data-name="Ebene 1" xmlns="http://www.w3.org/2000/svg" viewBox="0 0 2000 750">
  <defs>
    <style>
      .cls-1 {
        fill: #fff;
        stroke-width: 0px;
      }
    </style>
  </defs>
  <g>
    <polygon class="cls-1" points="846.270303691908339 340.675271609685296 894.595159831504134 340.675271609685296 894.595159831504134 463.112484157354629 917.448071901246294 463.112484157354629 917.448071901246294 340.675271609685296 965.583763218819513 340.675271609685296 965.583763218819513 319.158054600186006 846.270303691908339 319.158054600186006 846.270303691908339 340.675271609685296"/>
    <polygon class="cls-1" points="1405.155518387644406 319.156928619104292 1378.553089310007636 319.156928619104292 1341.138989869064972 382.679714432586479 1335.497824640970066 391.391993065797578 1341.107462398729695 399.775766717910301 1380.872610341921245 463.111358176272915 1407.862376912264153 463.111358176272915 1361.944868329090241 390.666298257510789 1405.155518387644406 319.156928619104292"/>
    <rect class="cls-1" x="1484.820932004044153" y="319.158054600186006" width="22.85291206974216" height="143.954429557168623"/>
    <path class="cls-1" d="M1051.000688209485816,319.158054600186006l-52.831032435566158,143.954429557168623h24.282908045723161l16.459591477901995-46.092598641647783,3.772036629561626-11.319206336673233,17.961650243229087-48.727112881653738c.25221976269313-.698389767010667.52020326055208-1.46856082809245.80169853141706-2.309668697431334.279243308694276.838574411900481.544974844389799,1.606212015543861.797194607082929,2.298971877138683l38.211294048029231,106.149614680267405h24.264892348390276l-52.831032435569796-143.954429557168623h-20.889201060199412Z"/>
    <path class="cls-1" d="M759.261241449239606,380.083483549420635l-.004503924334131-.001407476353052c-14.811155171730206-6.262706786161289-26.507846666627302-11.209141685765644-26.507846666627302-22.660650799742143,0-8.982232597969414,8.764636753589002-18.273547003343992,23.431666346634302-18.273547003343992,15.196240702269279,0,25.962871822237503,10.017009213661368,26.059706195414037,10.107369195608044l4.425105657966924,4.255927000176598,11.457983505206357-19.546750113455346-2.56273294593484-2.642114612321166c-.574250352561648-.590858573541482-14.335991154512158-14.456471130441059-39.380062412652478-14.456471130441059-26.170052341589326,0-46.667411984752107,17.982762388543051-46.667411984752107,40.93954621323428,0,25.084043586597545,21.654868196950702,34.427716112353664,39.05803182278396,41.934913490997133,15.635373324814282,6.746315661501285,27.985133848116675,12.073895157856896,27.985133848116675,24.917679881520598,0,10.87247334181302-9.007848667617509,18.464963787529996-21.904835997476766,18.464963787529996-18.63949085546119,0-31.525218374488759-13.086433647149533-31.642320407165244-13.206913623078435l-3.884634737911256-4.076333017368597-13.712197634278709,17.729979635307245,2.630291810943163,3.001021082669467c.675588650072314.769045080000069,16.91223587344939,18.832878106550197,46.228279362207104,18.832878106550197,26.802853710491036,0,45.523415203962941-16.912517368720728,45.523415203962941-41.128148044710542,0-27.051414034664049-22.474582425700646-36.554975874270895-40.53306704210263-44.191942572779226ZM758.216331003794039,382.554167541780771h0v-.000281495271338.000281495271338Z"/>
    <polygon class="cls-1" points="1572.489819161615742 319.158054600186006 1572.489819161615742 340.675271609685296 1620.812423339044472 340.675271609685296 1620.812423339044472 463.112484157354629 1643.667587370953697 463.112484157354629 1643.667587370953697 340.675271609685296 1691.803278688526916 340.675271609685296 1691.803278688526916 319.158054600186006 1572.489819161615742 319.158054600186006"/>
    <path class="cls-1" d="M1229.043069087081676,338.76673367323383c22.524125593376084,0,36.959203083231841,13.430702363413729,37.101076699746045,13.564412617073685l3.988224997585348,3.839313999302249,12.516405723654316-17.456366232028813-2.684338902949094-2.928958293330652c-1.819585430857842-1.937250454077002-18.727317379976739-18.929993974994431-51.308706010742753-18.929993974994431-39.395826147818298,0-69.340167081139953,29.524068493923551-71.297122204181505,69.295972323612659h-.189164822018938v3.54852938449767c0,.096271382637497.013511773002392.188038840937224.013511773002392.284310223574721,0,.096271382633859-.013511773002392.188038840933586-.013511773002392.284310223571083v3.54852938449767h.189164822018938c1.956955123041553,39.771903829692747,31.901296056363208,69.295690828344959,71.297122204181505,69.295690828344959,32.552113122597802,0,49.484616655550781-16.989928568207688,51.331225632409769-18.953358082475461l2.661819281282078-2.905594185849623-12.518657685821381-17.458899689463578-3.983721073251218,3.841002970926638c-.144125578681269.13483623474167-14.579203068537026,13.565538598159037-37.10332866191311,13.565538598159037-27.694630728583434,0-48.583831788786483-22.010678219321562-48.637878880792414-51.217783038253401.054047092005931-29.205697342575149,20.94324815220898-51.216657057164412,48.637878880792414-51.216657057164412Z"/>
  </g>
  <polygon class="cls-1" points="387.797844359825831 260.451144929505972 360.027110854669445 390.58774308343709 429.45576521217663 390.58774308343709 444.398240418478963 320.580146663338382 605.233234801602521 320.580146663338382 618.061486111586419 260.451144929505972 387.797844359825831 260.451144929505972"/>
  <polygon class="cls-1" points="497.421695939858182 358.12395026221202 482.394935245287343 428.534607435023645 321.021310465963325 428.534607435023645 308.196721311476722 488.663609168856055 538.991676137258764 488.663609168856055 566.85035029741266 358.12395026221202 497.421695939858182 358.12395026221202"/>
  <g>
    <path class="cls-1" d="M733.333682718966884,566.859267996314884h-16.956659364394l-4.462642284717731,12.940971966912912h-6.502058955626126l16.192001444727794-45.005298513180605h6.629337499671237l16.192001444731432,45.005298513180605h-6.566191555339174l-4.525788229053433-12.940971966912912ZM724.855353036768065,540.978310717859131s-1.020201663141052,4.079819997197774-1.784859582807258,6.374780411581014l-5.035889060625777,14.278876662487164h13.641497286869708l-4.972743116290076-14.278876662487164c-.764657919666206-2.29496041438324-1.720726983097848-6.374780411581014-1.720726983097848-6.374780411581014h-.12727854404875Z"/>
    <path class="cls-1" d="M786.553873927830864,534.79494145004719h15.746033212868497c7.586393218483863,0,13.068250510961661,4.207098541242885,13.068250510961661,11.473815416535217,0,4.399496340382029-2.167681870334491,7.905082906290772-5.610122491907532,9.689942489101668v.12727854404875c4.717199372811592,1.403023950668285,7.394982074722066,5.864679580005031,7.394982074722066,10.901555296008155,0,8.478329682198819-6.566191555342812,12.812706767486816-14.4702878062526,12.812706767486816h-16.128855500392092v-45.005298513180605ZM802.299907140699361,553.727871541017521c4.079819997194136,0,6.629337499671237-2.869193845672271,6.629337499671237-6.820748643436673,0-3.952541453145386-2.422238958428352-6.630324155052222-6.756616043719987-6.630324155052222h-9.307120201578073v13.451072798488894h9.434398745626822ZM803.001419116033503,574.31838267074636c4.844477916860342,0,7.71268510714799-3.060604989430431,7.71268510714799-7.650525818196911,0-4.588934173385496-3.059618334045808-7.71268510714799-7.776817706861038-7.71268510714799h-10.071778121247917v15.363210925344902h10.135910720960965Z"/>
    <path class="cls-1" d="M835.251236873780726,547.544502273201942h5.992944779431127v5.609135836526548c0,1.338891350955237-.128265199426096,2.42223895843199-.128265199426096,2.42223895843199h.128265199426096c1.466169895003986-4.71719937281523,5.227300204383937-8.414197082482133,10.199056665296666-8.414197082482133.828790519379254,0,1.593448439049098.127278544045112,1.593448439049098.127278544045112v6.120223323479877s-.828790519382892-.19141114375816-1.784859582810896-.19141114375816c-3.952541453145386,0-7.585406563102879,2.805061245951947-9.051576458103227,7.585406563099241-.574233431285393,1.848992182527581-.76564457504719,3.825262909100275-.76564457504719,5.801533635672968v13.195529055010411h-6.183369267815578v-32.255737690025853Z"/>
    <path class="cls-1" d="M885.545008224919002,559.655697065354616h1.403023950668285v-.573246775904408c0-5.291432804100623-2.996472389717383-7.076292386911518-7.076292386911518-7.076292386911518-4.972743116290076,0-8.988430513767526,3.123750933762494-8.988430513767526,3.123750933762494l-2.549517502477102-4.525788229049795s4.653066773094906-3.825262909100275,12.048048847816972-3.825262909100275c8.159639994388272,0,12.749560823154752,4.462642284717731,12.749560823154752,12.622282279106003v20.399099985970679h-5.737401035956282v-3.059618334049446c0-1.466169895000348.12727854404875-2.550504157858086.12727854404875-2.550504157858086h-.12727854404875s-2.613650102193787,6.374780411577376-10.327321864722762,6.374780411577376c-5.545989892198122,0-10.964701240343857-3.378308021859993-10.964701240343857-9.817221033150417,0-10.645024897155963,14.024319574393303-11.091979784392606,19.443030922539037-11.091979784392606ZM878.40556989367542,575.59314142198491c5.227300204387575,0,8.605608226247568-5.482843947858782,8.605608226247568-10.263189265006076v-1.02020166314469h-1.593448439052736c-4.654053428479529,0-13.068250510961661.318689687810547-13.068250510961661,6.119236668098893,0,2.613650102193787,2.040403326285741,5.164154260051873,6.056090723766829,5.164154260051873Z"/>
    <path class="cls-1" d="M911.932119713423162,547.544502273201942h5.992944779431127v4.270244485574949c0,1.275745406619535-.128265199426096,2.359093014096288-.128265199426096,2.359093014096288h.128265199426096c1.274758751238551-2.805061245955585,5.099035004957841-7.394982074722066,12.111194792156311-7.394982074722066,7.586393218480225,0,11.091979784388968,4.143952596910822,11.091979784388968,12.367725191012141v20.65365707406454h-6.183369267815578v-19.25161977877724c0-4.525788229053433-.956069063431642-8.095507394675224-6.119236668098893-8.095507394675224-4.908610516577028,0-8.861151969722414,3.251029477814882-10.200043320677651,7.904096250913426-.381835632142611,1.274758751238551-.510100831568707,2.740928646238899-.510100831568707,4.335363740668981v15.107667181870056h-6.183369267815578v-32.255737690025853Z"/>
    <path class="cls-1" d="M972.42396107447712,546.778857698151114c7.458128019054129,0,9.944499577199167,5.100021660338825,9.944499577199167,5.100021660338825h.12727854404875s-.12727854404875-.956069063428004-.12727854404875-2.167681870334491v-14.916256038108259h6.183369267815578v45.005298513180605h-5.864679580005031v-3.059618334049446c0-1.274758751238551.063145944332064-2.167681870334491.063145944332064-2.167681870334491h-.127278544045112s-2.613650102193787,5.991958124053781-10.581878952820261,5.991958124053781c-8.73288677029268,0-14.2157307181551-6.883894587768737-14.2157307181551-16.89252676468459,0-10.263189265009714,6.056090723766829-16.893513420061936,14.598553005678696-16.893513420061936ZM973.252751593860012,575.210319134461315c4.780345317147294,0,9.307120201578073-3.378308021859993,9.307120201578073-11.602080615961313,0-5.737401035956282-2.996472389717383-11.473815416535217-9.115709057816275-11.473815416535217-5.100021660338825,0-9.307120201581711,4.207098541242885-9.307120201581711,11.537948016248265,0,7.01215978719847,3.760143654002604,11.537948016248265,9.115709057819913,11.537948016248265Z"/>
    <path class="cls-1" d="M1048.785167570928024,546.778857698151114c9.62580988938862,0,17.402627596253296,7.076292386911518,17.402627596253296,16.829380820348888,0,9.817221033150417-7.776817706864676,16.956659364397638-17.402627596253296,16.956659364397638s-17.402627596253296-7.13943833124722-17.402627596253296-16.956659364397638c0-9.75308843343737,7.776817706864676-16.829380820348888,17.402627596253296-16.829380820348888ZM1048.785167570928024,575.210319134461315c6.120223323483515,0,11.091979784392606-4.844477916860342,11.091979784392606-11.602080615961313,0-6.693470099387923-4.971756460909091-11.473815416535217-11.091979784392606-11.473815416535217-6.056090723766829,0-11.091979784388968,4.780345317147294-11.091979784388968,11.473815416535217,0,6.757602699100971,5.035889060622139,11.602080615961313,11.091979784388968,11.602080615961313Z"/>
    <path class="cls-1" d="M1084.607664460439992,552.962226965966693h-4.016674052862072v-4.971756460909091h4.016674052862072v-1.530302494713396c0-10.645024897152325,8.032361450339522-11.983916248107562,12.112181447533658-11.983916248107562,1.4020372952873,0,2.358106358715304.191411143761798,2.358106358715304.191411143761798v5.290446148719639s-.637379375617456-.12727854404875-1.593448439049098-.12727854404875c-2.359093014096288,0-6.757602699100971.764657919669844-6.757602699100971,6.757602699100971v1.4020372952873h7.649539162815927v4.971756460909091h-7.649539162815927v26.838012997261103h-6.119236668098893v-26.838012997261103Z"/>
    <path class="cls-1" d="M1141.209123657299642,569.855740386028629s4.780345317147294,4.844477916860342,11.473815416535217,4.844477916860342c4.20808519662387,0,7.777804362245661-2.358106358715304,7.777804362245661-6.629337499671237,0-9.75308843343737-21.802123936638964-7.649539162815927-21.802123936638964-21.482447593447432,0-7.013146442575817,6.056090723766829-12.559136334770301,14.534420405965648-12.559136334770301,8.351051138150069,0,12.749560823151114,4.526774884430779,12.749560823151114,4.526774884430779l-2.868207190287649,5.227300204383937s-4.143952596907184-3.8884088534287-9.881353632863465-3.8884088534287c-4.780345317147294,0-8.159639994388272,2.99548573433276-8.159639994388272,6.565204899958189,0,9.307120201578073,21.802123936635326,6.820748643433035,21.802123936635326,21.419301649111731,0,6.948027187481784-5.354578748432687,12.685428223441704-14.279863317868148,12.685428223441704-9.561677289675572,0-14.916256038108259-5.927825524340733-14.916256038108259-5.927825524340733l3.569719165621791-4.781331972528278Z"/>
    <path class="cls-1" d="M1199.150460860499152,546.778857698151114c8.095507394671586,0,12.111194792152673,4.71719937281523,12.111194792152673,4.71719937281523l-2.932339790004335,4.335363740668981s-3.442440621573041-3.696997709670541-8.924297914054478-3.696997709670541c-6.502058955626126,0-11.219258328441356,4.84447791686398-11.219258328441356,11.473815416535217,0,6.566191555339174,4.71719937281523,11.602080615961313,11.410669472203153,11.602080615961313,5.991958124053781,0,9.944499577199167-4.334377085287997,9.944499577199167-4.334377085287997l2.486371558145038,4.525788229053433s-4.462642284717731,5.163167604670889-12.876839367199864,5.163167604670889c-10.135910720964603,0-17.276335707589169-7.203570930960268-17.276335707589169-16.89252676468459,0-9.562663945052918,7.140424986624566-16.893513420061936,17.276335707589169-16.893513420061936Z"/>
    <path class="cls-1" d="M1228.597190683049121,534.79494145004719h6.183369267815578v16.510691132538341c0,1.52931583933605-.12727854404875,2.676796046525851-.12727854404875,2.676796046525851h.12727854404875c1.403023950668285-3.123750933766132,5.482843947858782-7.203570930960268,11.92077030377186-7.203570930960268,7.586393218483863,0,11.091979784388968,4.143952596910822,11.091979784388968,12.367725191012141v20.65365707406454h-6.183369267811941v-19.25161977877724c0-4.525788229053433-.956069063431642-8.095507394675224-6.119236668102531-8.095507394675224-4.845464572241326,0-8.861151969722414,3.314175422146945-10.200043320674013,7.968228850626474-.381835632146249,1.274758751238551-.510100831572345,2.740928646238899-.510100831572345,4.271231140955933v15.107667181870056h-6.183369267815578v-45.005298513180605Z"/>
    <path class="cls-1" d="M1272.832897999662237,547.544502273201942h6.566191555339174l6.693470099384285,22.629927800637233c.510100831572345,1.657581038762146.764657919669844,3.442440621573041.828790519382892,3.442440621573041h.12727854404875s.318689687810547-1.784859582810896.828790519382892-3.442440621573041l7.012159787194832-22.56678185630517h5.673268436243234l6.949013842862769,22.56678185630517c.510100831572345,1.657581038762146.891936463714956,3.442440621573041.891936463714956,3.442440621573041h.128265199426096s.254557088097499-1.784859582810896.764657919669844-3.442440621573041l6.757602699100971-22.629927800637233h6.502058955622488l-10.39145446443581,32.255737690025853h-6.820748643433035l-6.693470099387923-20.717789673777588c-.510100831572345-1.657581038765784-.891936463714956-3.506573221289727-.891936463714956-3.506573221289727h-.128265199429734s-.381835632142611,1.848992182523943-.891936463714956,3.506573221289727l-6.629337499671237,20.717789673777588h-6.884881243149721l-10.39145446443581-32.255737690025853Z"/>
    <path class="cls-1" d="M1354.870332898499328,559.655697065354616h1.403023950668285v-.573246775904408c0-5.291432804100623-2.996472389717383-7.076292386911518-7.076292386911518-7.076292386911518-4.972743116290076,0-8.988430513771164,3.123750933762494-8.988430513771164,3.123750933762494l-2.549517502480739-4.525788229049795s4.653066773102182-3.825262909100275,12.04804884782061-3.825262909100275c8.159639994388272,0,12.749560823154752,4.462642284717731,12.749560823154752,12.622282279106003v20.399099985970679h-5.737401035956282v-3.059618334049446c0-1.466169895000348.12727854404875-2.550504157858086.12727854404875-2.550504157858086h-.12727854404875s-2.613650102193787,6.374780411577376-10.327321864722762,6.374780411577376c-5.545989892194484,0-10.964701240343857-3.378308021859993-10.964701240343857-9.817221033150417,0-10.645024897155963,14.024319574393303-11.091979784392606,19.443030922542675-11.091979784392606ZM1347.730894567255746,575.59314142198491c5.227300204383937,0,8.60560822624393-5.482843947858782,8.60560822624393-10.263189265006076v-1.02020166314469h-1.593448439049098c-4.654053428479529,0-13.068250510965299.318689687810547-13.068250510965299,6.119236668098893,0,2.613650102193787,2.040403326289379,5.164154260051873,6.056090723770467,5.164154260051873Z"/>
    <path class="cls-1" d="M1381.25744438699985,547.544502273201942h5.992944779431127v5.609135836526548c0,1.338891350955237-.128265199426096,2.42223895843199-.128265199426096,2.42223895843199h.128265199426096c1.466169895003986-4.71719937281523,5.227300204387575-8.414197082482133,10.199056665296666-8.414197082482133.828790519382892,0,1.593448439049098.127278544045112,1.593448439049098.127278544045112v6.120223323479877s-.828790519379254-.19141114375816-1.784859582810896-.19141114375816c-3.952541453145386,0-7.585406563102879,2.805061245951947-9.051576458103227,7.585406563099241-.574233431285393,1.848992182527581-.76564457504719,3.825262909100275-.76564457504719,5.801533635672968v13.195529055010411h-6.183369267815578v-32.255737690025853Z"/>
    <path class="cls-1" d="M1412.363728559073934,576.230520797606005l16.255147389063495-20.399099985970679c1.403023950668285-1.721713638475194,2.677782701906835-2.996472389713745,2.677782701906835-2.996472389713745v-.12727854404875s-1.02020166314469.12727854404875-3.123750933766132.12727854404875h-15.108653837247402v-5.290446148719639h26.583455909163604v3.569719165621791l-16.25613404444448,20.462245930302743c-1.338891350951599,1.657581038762146-2.740928646238899,2.932339790004335-2.740928646238899,2.932339790004335v.128265199426096s1.083347607476753-.128265199426096,3.186896878098196-.128265199426096h16.383412588489591v5.291432804096985h-27.857228005024808v-3.569719165621791Z"/>
    <path class="cls-1" d="M1484.454690569949889,534.79494145004719h14.916256038111896c13.769762486295804,0,22.821338944399031,8.222785938720335,22.821338944399031,22.438516656875436,0,14.279863317871786-9.051576458103227,22.56678185630517-22.821338944399031,22.56678185630517h-14.916256038111896v-45.005298513180605ZM1498.924978376202489,574.31838267074636c10.135910720960965,0,16.765248220632202-5.992944779431127,16.765248220632202-17.084924563823733,0-11.02784718467592-6.693470099384285-16.956659364394-16.765248220632202-16.956659364394h-8.159639994388272v34.041583928217733h8.159639994388272Z"/>
    <path class="cls-1" d="M1539.844536959910329,534.79494145004719h6.246515212147642v6.31064781186069h-6.246515212147642v-6.31064781186069ZM1539.907682904242392,547.544502273201942h6.183369267815578v32.255737690025853h-6.183369267815578v-32.255737690025853Z"/>
    <path class="cls-1" d="M1577.070057800086943,587.832601413567318c5.610122491907532,0,10.200043320674013-2.486371558145038,10.200043320674013-9.052563113480574v-2.358106358718942c0-1.020201663141052.064132599713048-2.040403326285741.064132599713048-2.040403326285741h-.128265199426096c-1.912138126859645,3.187883533475542-4.908610516577028,5.035889060622139-9.561677289675572,5.035889060622139-8.988430513767526,0-14.407141861916898-7.203570930960268-14.407141861916898-16.509704477157356,0-9.243974257246009,5.164154260051873-16.12885550039573,14.088452174106351-16.12885550039573,7.776817706864676,0,10.135910720960965,4.781331972528278,10.135910720960965,4.781331972528278h.12727854404875s-.064132599716686-.445968231855659-.064132599716686-1.020201663141052v-2.995485734336398h5.928812179721717v30.916846339070617c0,10.646011552533309-8.095507394675224,14.725831549731083-16.255147389063495,14.725831549731083-3.889395508813323,0-7.905082906290772-1.083347607480391-11.028833840056905-2.677782701910473l2.040403326285741-4.844477916860342s4.015687397481088,2.167681870334491,8.860165314345068,2.167681870334491ZM1587.397379664809705,562.970859142882546c0-8.414197082485771-4.079819997194136-10.836436040917761-9.115709057816275-10.836436040917761-5.61012249191117,0-8.797019370009366,4.079819997197774-8.797019370009366,10.645024897152325,0,6.693470099387923,3.569719165621791,11.283390928154404,9.371252801291121,11.283390928154404,4.461655629340385,0,8.54147562653452-2.676796046525851,8.54147562653452-11.091979784388968Z"/>
    <path class="cls-1" d="M1612.636024290739442,534.79494145004719h6.246515212147642v6.31064781186069h-6.246515212147642v-6.31064781186069ZM1612.699170235075144,547.544502273201942h6.183369267811941v32.255737690025853h-6.183369267811941v-32.255737690025853Z"/>
    <path class="cls-1" d="M1639.47107732186123,552.962226965966693h-4.207098541246523v-4.971756460909091h4.398509685004683v-9.307120201578073h5.991958124053781v9.307120201578073h7.777804362245661v4.971756460909091h-7.777804362245661v14.343995917584834c0,6.43792635590944,4.525788229053433,7.266716875292332,6.884881243149721,7.266716875292332.89292311909594,0,1.466169895000348-.12727854404875,1.466169895000348-.12727854404875v5.481857292481436s-.891936463714956.12727854404875-2.167681870334491.12727854404875c-4.142965941529837,0-12.366738535627519-1.274758751238551-12.366738535627519-12.04804884782061v-15.044521237537992Z"/>
    <path class="cls-1" d="M1670.894077870983892,571.449188825077727s3.633851765338477,3.761130309383589,9.242987601865025,3.761130309383589c2.677782701906835,0,5.355565403813671-1.4020372952873,5.355565403813671-4.015687397481088,0-5.928812179714441-16.574823732251389-4.717199372811592-16.574823732251389-15.235932381296152,0-5.864679580005031,5.227300204383937-9.179841657532961,11.666213215674361-9.179841657532961,7.075305731534172,0,10.390467809058464,3.569719165625429,10.390467809058464,3.569719165625429l-2.486371558145038,4.654053428479529s-2.868207190287649-2.868207190291287-7.968228850626474-2.868207190291287c-2.677782701906835,0-5.291432804096985,1.146493551812455-5.291432804096985,3.95155479776804,0,5.80153363566933,16.574823732251389,4.526774884430779,16.574823732251389,15.108653837247402,0,5.354578748436325-4.589920828766481,9.370266145917412-11.666213215677999,9.370266145917412-7.904096250909788,0-12.239459991582407-4.71719937281523-12.239459991582407-4.71719937281523l2.996472389717383-4.398509685004683Z"/>
  </g>
</svg>