<svg xmlns="http://www.w3.org/2000/svg" xmlns:xlink="http://www.w3.org/1999/xlink" viewBox="0 0 252 350"><defs><style>.bge-white-cls-1{fill:#fff;}.bge-white-cls-2{fill:url(#linear-gradient);}.bge-white-cls-3{fill:url(#linear-gradient-2);}.bge-white-cls-4{fill:#091863;}</style><linearGradient id="linear-gradient" x1="180.6" y1="180.6" x2="68.6" y2="292.6" gradientUnits="userSpaceOnUse"><stop offset="0" stop-color="#17a952"/><stop offset="0.8" stop-color="#2bbf58"/></linearGradient><linearGradient id="linear-gradient-2" x1="288.4" y1="92.4" x2="190.4" y2="190.4" gradientUnits="userSpaceOnUse"><stop offset="0.3" stop-color="#17a952"/><stop offset="0.57" stop-color="#12a04e"/><stop offset="1" stop-color="#048943"/></linearGradient></defs><g id="bge-white-Layer_1" data-name="BGE White Layer 2"><g id="bge-white-Layer_1-2" data-name="Layer 1"><path class="bge-white-cls-1" d="M245.24,0H188.76a2.78,2.78,0,0,0-2,.82l-4,4a2.79,2.79,0,0,0-.82,2V28H161V6.77a2.81,2.81,0,0,0-.83-2l-4-4a2.83,2.83,0,0,0-2-.81H97.76a2.78,2.78,0,0,0-2,.82l-4,4a2.79,2.79,0,0,0-.82,2V28H70V6.76a2.84,2.84,0,0,0-.82-2l-4-4a2.79,2.79,0,0,0-2-.82H6.76a2.79,2.79,0,0,0-2,.82l-4,4a2.84,2.84,0,0,0-.82,2V224L108.38,115.62a2.78,2.78,0,0,1,2-.82h3.28a2.79,2.79,0,0,1,2,.82l7.58,7.58h0l19.6,19.59v-4.44a2.79,2.79,0,0,1,.82-2L252,28V6.76a2.79,2.79,0,0,0-.82-2l-4-4A2.78,2.78,0,0,0,245.24,0Z"/><path class="bge-white-cls-2" d="M235.2,236.36v3.28a2.78,2.78,0,0,1-.82,2L126,350,14,238,122.38,129.62a2.78,2.78,0,0,0,.82-2v-4.43l19.6,19.59h0l7.58,7.58a2.82,2.82,0,0,1,.82,2v3.28a2.82,2.82,0,0,1-.82,2L70,238l14,14,80.38-80.38a2.78,2.78,0,0,0,.82-2V165.2l19.6,19.6h0l7.58,7.58a2.82,2.82,0,0,1,.82,2v3.28a2.82,2.82,0,0,1-.82,2L112,280l14,14,80.38-80.38a2.76,2.76,0,0,0,.82-2V207.2l19.6,19.6h0l7.58,7.58A2.79,2.79,0,0,1,235.2,236.36Z"/><path class="bge-white-cls-3" d="M252,140v56l-24.38,24.38a2.79,2.79,0,0,0-.82,2v4.44l-27.18-27.18a2.82,2.82,0,0,1-.82-2v-3.28a2.82,2.82,0,0,1,.82-2Zm-95.2,12.36v3.28a2.82,2.82,0,0,0,.82,2l7.58,7.58,19.6,19.6v-4.44a2.79,2.79,0,0,1,.82-2L252,112V56l-94.38,94.38A2.84,2.84,0,0,0,156.8,152.36Z"/><path class="bge-white-cls-4" d="M40.93,46c5.53,0,9.14,3.17,9.14,9.88v7c0,4.2-1.47,6.78-3.83,8v.51c2.73,1.18,4.42,3.84,4.42,8.33v8c0,6.71-3.61,9.88-9.14,9.88H22.11A1,1,0,0,1,21,96.45V47.05A1,1,0,0,1,22.11,46ZM31.4,54.79v12.1h7.47a1,1,0,0,0,1.18-1.18V56a1,1,0,0,0-1.18-1.18Zm7.47,20.94H31.4v13h7.47a1,1,0,0,0,1.18-1.18V76.91A1,1,0,0,0,38.87,75.73Z"/><path class="bge-white-cls-4" d="M88.69,61a1.22,1.22,0,0,1-1.18,1.18l-7.67.73a1,1,0,0,1-1.18-1V55.53c0-.81-.36-1.18-1.17-1.18H70.7a1,1,0,0,0-1.18,1.18V88a1,1,0,0,0,1.18,1.18h6.79c.81,0,1.17-.37,1.17-1.18V79.2h-2.5c-.74,0-1.18-.44-1.11-1.11l.44-6.34a1.22,1.22,0,0,1,1.26-1H87.59a1,1,0,0,1,1.1,1.11V88.12c0,6.71-3.61,9.88-9.14,9.88H68.26c-5.53,0-9.14-3.17-9.14-9.88V55.38c0-6.7,3.61-9.88,9.14-9.88H79.55c5.53,0,9.14,3.18,9.14,9.88Z"/></g></g></svg>