<svg id="Layer_1" data-name="Layer 1" xmlns="http://www.w3.org/2000/svg" viewBox="0 0 367.81 500"><defs><style>.cls-1{fill:#9dbc1d;}.cls-2{fill:#bccf00;}.cls-3{fill:#fff;}.cls-4{fill:#001845;}</style></defs><polygon class="cls-1" points="367.81 193.35 287.67 273.48 330.2 316.01 367.81 278.4 367.81 193.35"/><polygon class="cls-1" points="367.81 70.87 226.42 212.24 268.95 254.77 367.81 155.92 367.81 70.87"/><polygon class="cls-2" points="306.52 292.33 183.88 414.95 165.03 396.1 287.67 273.48 245.13 230.96 122.5 353.57 103.78 334.86 226.42 212.24 183.88 169.72 61.25 292.33 18.71 334.86 183.88 500 349.05 334.86 306.52 292.33"/><polygon class="cls-3" points="262.85 0 262.85 33.45 236.39 33.45 236.39 0 131.43 0 131.43 33.45 104.96 33.45 104.96 0 0 0 0 316.15 165.17 151.01 207.7 193.53 367.81 33.45 367.81 0 262.85 0"/><path class="cls-4" d="M70.47,91c7.65-1.54,9.35-6.91,9.35-11.38C79.82,71.49,74.09,67,63.69,67H33.56v50.43H65.08c10.83,0,16.79-5.08,16.79-14.3C81.87,96.63,77.76,92.31,70.47,91Zm-8-4.51H45.91V78.25H62.3c4.3,0,5.18,1.67,5.18,4.16S66.64,86.5,62.44,86.5ZM45.91,96.93H63.76c4.2,0,5.62,1.16,5.62,4.6S68,106.2,63.76,106.2H45.91Z"/><path class="cls-4" d="M111.19,99.64h16.57c-.49,5.19-3.76,6.63-14.29,6.63s-14.12-3.54-14.12-14,3.83-14,14.64-14c11,0,12.51,3.92,12.51,7.75v.75h13.58v-.75c0-12.12-9.88-19.65-25.8-19.65-17,0-27.93,10.18-27.93,26s9.79,26,24.93,26c10.71,0,15.37-4.79,17.34-9.56v8.82h11.54v-27h-29Z"/><polygon class="cls-4" points="191.74 78.25 191.74 67.01 148.19 67.01 148.19 117.44 191.74 117.44 191.74 106.2 160.54 106.2 160.54 97.66 190.64 97.66 190.64 86.5 160.54 86.5 160.54 78.25 191.74 78.25"/><path class="cls-4" d="M274,483.63c-13.88,0-22.51-8.07-22.51-21.05s8.63-21.05,22.51-21.05,22.45,8.07,22.45,21.05S287.88,483.63,274,483.63ZM274,447c-11.71,0-16.27,4.36-16.27,15.57s4.56,15.58,16.27,15.58,16.21-4.37,16.21-15.58S285.7,447,274,447Z"/><path class="cls-4" d="M278.6,464.51c-.22,1.82-1.7,2.7-4.41,2.7-3.5,0-5-1.18-5-4.63s1.47-4.63,5-4.63c2.69,0,4.17.83,4.4,2.65h6.13c-.22-5-4.48-8.24-10.53-8.24-6.94,0-11.06,4-11.06,10.22s4.12,10.22,11.06,10.22c6.07,0,10.34-3.29,10.54-8.29Z"/></svg>