<svg id="Layer_1" data-name="Layer 1" xmlns="http://www.w3.org/2000/svg" viewBox="0 0 24 24"><title>24x24</title><path d="M16,6.69c-1.19,0-2.38,0-3.56,0a.9.9,0,0,1-.67-.27A4.87,4.87,0,0,0,7.51,5,3.93,3.93,0,0,0,4.06,9.59a24.64,24.64,0,0,0,.58,2.84,4.19,4.19,0,0,1,0,2.08c-.07.27-.12.54-.17.81a.88.88,0,0,0,.18.81,13.24,13.24,0,0,0,2.79,2.33,3.29,3.29,0,0,0,3.53.12c.6-.36.66-.48.46-1.18a.56.56,0,0,1,.2-.69,2.7,2.7,0,0,0,1-1.63,8.89,8.89,0,0,1,.58-1.64A2.08,2.08,0,0,0,13.35,12a2.55,2.55,0,0,1,.09-1.7,1.69,1.69,0,0,0,0-1.29c-.09-.25-.17-.51-.25-.75a.58.58,0,0,1,.43-.08,19.83,19.83,0,0,1,2,0,3.54,3.54,0,0,0,2.17-.78A5.3,5.3,0,0,0,16,6.69ZM8.66,9.1A.56.56,0,0,0,8,9.41c-.12.21-.29.23-.46,0l-.07,0c-.34-.27-.34-.27-.68,0l-.13.07A.87.87,0,0,1,6.43,9c-.06-.18,0-.39-.3-.45C6,8.53,6,8.39,6,8.3c0-.24-.14-.34-.36-.37a1,1,0,0,1-.46-.14.63.63,0,0,1,.36-.22.29.29,0,0,0,.17-.46.45.45,0,0,1-.1-.37.94.94,0,0,1,.5,0c.22,0,.35,0,.39-.29s.08-.34.42-.21a.23.23,0,0,0,.31-.1c.07-.1.11-.23.23-.29h0c.12.1,0,.31.16.38a.7.7,0,0,0,.45,0c.44-.11.46,0,.55.32a.78.78,0,0,0,.4.5l.32.19c.3.2.31.24.05.49l-.13.1c-.17.12-.17.23,0,.35s.21.14.21.28-.14.09-.22.09c-.28,0-.52.06-.46.45C8.91,9.06,8.78,9.13,8.66,9.1ZM9.23,11A.53.53,0,0,1,9.17,10a1.48,1.48,0,0,1,1.69-.12.59.59,0,0,1,0,1.07,1.53,1.53,0,0,1-.78.22A1.66,1.66,0,0,1,9.23,11Zm2.44,4.12a1.9,1.9,0,0,1-1.29-.59c-.13-.12-.13-.23,0-.34a1.5,1.5,0,0,1,.74-.33c.39,0,.78,0,1.16,0a.3.3,0,0,1,.33.3C12.74,14.7,12.36,15.09,11.67,15.07Zm1.56-4.94c.18.11,0,.28,0,.41s-.09.56-.15.84a.53.53,0,0,1-.36-.09.51.51,0,0,1-.18-.8.78.78,0,0,1,.26-.25C12.92,10.16,13.08,10,13.23,10.13Z"/><path d="M19.66,7.18H19l-.44,0c-.13,0-.27,0-.29.15s0,.35.17.42a.92.92,0,0,0,.29,0h.91c.16,0,.31,0,.3-.23S19.9,7.18,19.66,7.18Z"/><path d="M19,8.61c-.19-.16-.35-.35-.53-.51s-.17-.21-.31-.07-.23.26-.07.42a10.1,10.1,0,0,0,.94.9C19.39,8.93,19.39,8.93,19,8.61Z"/><path d="M18.06,6.84c.09.12.19.15.31,0L19,6.3a.37.37,0,0,0,.13-.24c0-.09-.09-.16-.18-.23s-.18-.11-.26,0a4.7,4.7,0,0,0-.71.7C17.84,6.64,18,6.74,18.06,6.84Z"/><path d="M17.9,8.48a.16.16,0,0,0-.15-.06.3.3,0,0,0-.26.43,3.62,3.62,0,0,0,.24.43c.05.08.11.18.22.11s.31-.15.25-.33A4,4,0,0,0,17.9,8.48Z"/><path d="M17.61,6.44c.12,0,.37-.34.37-.58s-.12-.24-.28-.27-.47.43-.45.58S17.46,6.4,17.61,6.44Z"/></svg>