<svg id="Layer_1" data-name="Layer 1" xmlns="http://www.w3.org/2000/svg" viewBox="0 0 400 400"><defs><style>.cls-1{fill:#fff;}</style></defs><title>Artboard 1</title><path d="M315.61,108.17c-14.46,8.54-26.58,17-43.06,15.4-13.29-1.25-26.78-.3-40.19-.21-2.64,0-5.5-.84-8.53,1.62,1.57,4.77,3.13,9.85,4.9,14.87,3,8.56,3.49,17.12-.18,25.57-4.79,11-4.7,22.26-1.75,33.68,2.64,10.22,1.22,20.1-3.27,29.47A170.36,170.36,0,0,0,212.09,261c-3.18,12.73-8.32,24.25-19.43,32.26-4.76,3.43-5.64,7.89-4,13.66,4,13.79,2.77,16.3-9.1,23.4-23.8,14.25-47.06,10.43-69.85-2.37C88.52,316,71.59,298.83,54.56,281.84c-4.66-4.65-4.49-10.32-3.52-16.09.9-5.38,1.92-10.76,3.32-16,3.66-13.8,3.21-27.41-.06-41.29-4.38-18.57-9.26-37-11.4-56.1C37.34,103,67.76,67,111.2,61.58c32-4,60.66,4.35,84,27.6a16.92,16.92,0,0,0,13.07,5.24q35.28,0,70.55.46C292.1,95.07,302.61,102.84,315.61,108.17ZM93.71,149.9a22,22,0,0,0,2.49-1.43c6.75-5.21,6.74-5.22,13.57,0a9.91,9.91,0,0,1,1.27,1c3.46,3.83,6.74,3.33,9.27-.81,3.21-5.26,7.26-7.83,13.6-6.19,2.39.62,4.89-.76,4.49-3.36-1.16-7.66,3.56-8.48,9.18-8.74,1.59-.07,3.35,0,4.32-1.83,0-2.89-2.31-4.18-4.26-5.53-3.42-2.37-3.49-4.55-.14-7a26.59,26.59,0,0,0,2.55-2c5.15-4.82,5.07-5.68-.9-9.57-2.06-1.34-4.19-2.57-6.31-3.8a16.05,16.05,0,0,1-8-9.94c-1.88-6.84-2.19-8.56-11-6.29C121,85.18,118,86,115,84.85c-3.63-1.35-.69-5.65-3.06-7.5-.48,0-.78-.09-1,0-2.34,1.19-3.3,3.59-4.61,5.61-1.59,2.47-3.29,3.1-6.16,2C93.57,82.41,93,82.47,92,89.08c-.8,5.2-3.5,6-7.86,5.9-3.35-.07-6.95-.91-9.85.8-.86,3.37.88,5.36,2,7.48,2.27,4.38,1.09,7.21-3.42,9-2.43,1-5.18,1.57-7.14,4.36,2.87,2.2,6.13,2.29,9.22,2.73C79.28,120,82,122,82,126.74c0,1.88-.27,4.53,1.81,5,5,1.14,4.82,5.3,5.86,8.8C90.61,143.62,90.73,147,93.71,149.9Zm67.62,34.47c5.55-.28,10.84-1.43,15.59-4.38,9.11-5.66,9.34-15,.57-21.24-8.93-6.36-25.65-5.15-33.55,2.43-6.26,6-5.89,13,1.26,17.95A31.1,31.1,0,0,0,161.33,184.37Zm32.08,76.37c13.7.48,21.31-7.2,19.11-19-.72-3.84-2.68-6-6.51-6-7.64-.09-15.31-.3-22.94.12-5.59.31-10.27,3.44-14.77,6.61-2.89,2-3,4.31-.38,6.69C175.14,255.79,183.24,260.54,193.41,260.74Zm27.5-72.94c1.2-5.66,1.42-11.33,3-16.79.73-2.5,3.93-5.79.53-8-3-1.92-6.16.61-9,2.13a15.41,15.41,0,0,0-5.25,5c-4.11,5.94-2.72,12.28,3.65,15.75A11.44,11.44,0,0,0,220.91,187.8Z"/><path d="M339.12,104.68H351.7c4.67,0,5.95,2.8,6.05,6.94.12,4.52-2.8,4.54-6,4.52-6,0-12,0-18-.06a18.26,18.26,0,0,1-5.61-.85c-4-1.41-3.93-4.92-3.45-8.21s3.28-3.15,5.76-3C333.71,104.2,337,104.51,339.12,104.68Z"/><path d="M339.54,147.53c-7.08-5.56-12.63-11.85-18.51-17.78-3.26-3.28-1-5.84,1.35-8.31,2.71-2.78,4.31-.36,6,1.26,3.54,3.36,6.89,6.93,10.55,10.15C346.21,139.22,346.28,139.14,339.54,147.53Z"/><path d="M340.72,82.47a8.28,8.28,0,0,1-2.59,4.79c-4,3.76-8.08,7.37-12,11.17-2.39,2.3-4.4,1.72-6.24-.48-1.69-2-4.27-4-1.93-7.06,4-5.21,9.08-9.45,14.05-13.72,1.63-1.4,3.62-.77,5.23.64S340.46,80.71,340.72,82.47Z"/><path d="M313.92,129.13a2.8,2.8,0,0,1,2.82,1.17c2.08,3.76,4.55,7.42,5.93,11.44,1.24,3.61-2.45,5-4.83,6.51s-3.49-.54-4.45-2.11a82.65,82.65,0,0,1-4.64-8.52A5.92,5.92,0,0,1,313.92,129.13Z"/><path d="M318.44,78.46c-.15,4.72-5,12.25-7.41,11.56-3-.86-6.56-1.74-7.14-5.49-.45-3,6.64-11.68,8.86-11.33C315.92,73.7,318.24,75.31,318.44,78.46Z"/><path class="cls-1" d="M93.71,149.9c-3-2.9-3.1-6.28-4-9.36-1-3.5-.82-7.66-5.86-8.8-2.08-.47-1.81-3.12-1.81-5,0-4.75-2.74-6.75-7.1-7.37-3.09-.44-6.35-.53-9.22-2.73,2-2.79,4.71-3.39,7.14-4.36,4.51-1.81,5.69-4.64,3.42-9-1.1-2.12-2.84-4.11-2-7.48,2.9-1.71,6.5-.87,9.85-.8,4.36.08,7.06-.7,7.86-5.9,1-6.61,1.58-6.67,8.21-4.11,2.87,1.1,4.57.47,6.16-2,1.31-2,2.27-4.42,4.61-5.61.21-.1.51,0,1,0,2.37,1.85-.57,6.15,3.06,7.5,3,1.12,6,.33,8.88-.41,8.8-2.27,9.11-.55,11,6.29a16.05,16.05,0,0,0,8,9.94c2.12,1.23,4.25,2.46,6.31,3.8,6,3.89,6,4.75.9,9.57a26.59,26.59,0,0,1-2.55,2c-3.35,2.41-3.28,4.59.14,7,2,1.35,4.26,2.64,4.26,5.53-1,1.82-2.73,1.76-4.32,1.83-5.62.26-10.34,1.08-9.18,8.74.4,2.6-2.1,4-4.49,3.36-6.34-1.64-10.39.93-13.6,6.19-2.53,4.14-5.81,4.64-9.27.81a9.91,9.91,0,0,0-1.27-1c-6.83-5.22-6.82-5.21-13.57,0A22,22,0,0,1,93.71,149.9Z"/><path class="cls-1" d="M161.33,184.37a31.1,31.1,0,0,1-16.13-5.24c-7.15-5-7.52-11.94-1.26-17.95,7.9-7.58,24.62-8.79,33.55-2.43,8.77,6.23,8.54,15.58-.57,21.24C172.17,182.94,166.88,184.09,161.33,184.37Z"/><path class="cls-1" d="M193.41,260.74c-10.17-.2-18.27-5-25.49-11.59-2.58-2.38-2.51-4.65.38-6.69,4.5-3.17,9.18-6.3,14.77-6.61,7.63-.42,15.3-.21,22.94-.12,3.83,0,5.79,2.16,6.51,6C214.72,253.54,207.11,261.22,193.41,260.74Z"/><path class="cls-1" d="M220.91,187.8a11.44,11.44,0,0,1-7.06-1.87c-6.37-3.47-7.76-9.81-3.65-15.75a15.41,15.41,0,0,1,5.25-5c2.82-1.52,6-4.05,9-2.13,3.4,2.17.2,5.46-.53,8C222.33,176.47,222.11,182.14,220.91,187.8Z"/></svg>