<svg id="Layer_1" data-name="Layer 1" xmlns="http://www.w3.org/2000/svg" viewBox="0 0 19.13 16.9"><title>24x24</title><path d="M16.78,5.63l-4.28,0a1,1,0,0,1-.79-.32A5.86,5.86,0,0,0,6.62,3.61a4.71,4.71,0,0,0-4.14,5.5,27.67,27.67,0,0,0,.69,3.4,5,5,0,0,1,0,2.5c-.08.32-.15.65-.2,1a1,1,0,0,0,.21,1,16,16,0,0,0,3.35,2.79,4,4,0,0,0,4.23.15c.72-.43.8-.58.55-1.42a.68.68,0,0,1,.25-.83,3.18,3.18,0,0,0,1.17-1.95,9.83,9.83,0,0,1,.7-2A2.55,2.55,0,0,0,13.62,12a3.13,3.13,0,0,1,.11-2,2,2,0,0,0,0-1.55c-.11-.3-.2-.61-.3-.9.19-.15.36-.09.52-.1.81,0,1.63-.06,2.44,0A4.29,4.29,0,0,0,19,6.43,6.39,6.39,0,0,0,16.78,5.63ZM8,8.51a.69.69,0,0,0-.82.38c-.15.25-.35.28-.56,0l-.08-.06c-.41-.32-.41-.32-.82,0L5.56,9a1.12,1.12,0,0,1-.25-.56c-.06-.22,0-.47-.35-.54-.13,0-.11-.19-.11-.3,0-.29-.17-.41-.43-.45A1,1,0,0,1,3.86,7a.81.81,0,0,1,.43-.27c.27-.11.35-.28.21-.54a.58.58,0,0,1-.12-.46,1.19,1.19,0,0,1,.6,0c.26,0,.42,0,.47-.35s.1-.41.5-.25a.27.27,0,0,0,.37-.12.78.78,0,0,1,.28-.34h.06c.15.12,0,.38.19.46a.84.84,0,0,0,.54,0c.53-.13.55,0,.66.39a1,1,0,0,0,.48.6l.39.23c.36.23.36.29.05.58l-.15.12c-.21.15-.2.28,0,.43s.25.15.25.33-.16.11-.26.11c-.34,0-.62.07-.55.53C8.29,8.47,8.14,8.55,8,8.51Zm.69,2.22A.63.63,0,0,1,8.6,9.65a1.8,1.8,0,0,1,2-.15.72.72,0,0,1,0,1.29,1.85,1.85,0,0,1-.94.26A1.79,1.79,0,0,1,8.68,10.73Zm2.92,4.95a2.28,2.28,0,0,1-1.54-.7c-.16-.14-.16-.28,0-.41a1.76,1.76,0,0,1,.89-.4c.47,0,.93,0,1.39,0a.37.37,0,0,1,.4.36C12.89,15.25,12.43,15.71,11.6,15.68Zm1.88-5.92c.21.13,0,.33,0,.48-.1.33-.11.68-.18,1a.67.67,0,0,1-.43-.11.62.62,0,0,1-.22-1,.84.84,0,0,1,.32-.3C13.11,9.8,13.3,9.64,13.48,9.76Z" transform="translate(-2.44 -3.55)"/><path d="M21.2,6.22h-.77l-.52,0c-.15,0-.32,0-.35.18s0,.42.21.5a.93.93,0,0,0,.34,0H21.2c.19,0,.37,0,.36-.28S21.48,6.22,21.2,6.22Z" transform="translate(-2.44 -3.55)"/><path d="M20.42,7.93c-.22-.2-.42-.41-.64-.62s-.2-.24-.36-.07-.28.3-.08.5a11.55,11.55,0,0,0,1.12,1.08C20.87,8.31,20.86,8.32,20.42,7.93Z" transform="translate(-2.44 -3.55)"/><path d="M19.27,5.81a.22.22,0,0,0,.38,0c.23-.23.48-.45.72-.67a.48.48,0,0,0,.16-.29c0-.11-.11-.2-.21-.29a.25.25,0,0,0-.32,0,6.13,6.13,0,0,0-.85.84C19,5.57,19.16,5.69,19.27,5.81Z" transform="translate(-2.44 -3.55)"/><path d="M19.08,7.77a.19.19,0,0,0-.17-.07.37.37,0,0,0-.32.52,4.16,4.16,0,0,0,.28.51c.06.1.14.22.27.13s.37-.17.3-.39A5.77,5.77,0,0,0,19.08,7.77Z" transform="translate(-2.44 -3.55)"/><path d="M18.73,5.33c.15,0,.44-.41.45-.7s-.15-.29-.34-.32-.57.51-.54.69S18.55,5.28,18.73,5.33Z" transform="translate(-2.44 -3.55)"/></svg>