<svg xmlns="http://www.w3.org/2000/svg" viewBox="0 0 194.77 115.68"><defs><style>.eb-league-logo-full-cls-1{fill:#2176ff;}.eb-league-logo-full-cls-2{fill:#fff;}</style></defs><g id="EBL_Layer_2" data-name="Layer 2"><g id="EBL_Layer_1-2" data-name="Layer 1"><polygon class="eb-league-logo-full-cls-1" points="72.48 71.94 72.48 87.93 60.08 77.96 36.51 87.91 49.88 69.45 34.75 57.35 58.56 57.35 72.48 37.91 72.48 57.35 84.67 57.35 84.67 0 52.28 45.19 0 45.15 33.25 71.75 1.88 115.68 58.47 91.43 84.67 112.88 84.67 66.79 72.48 71.94"/><path class="eb-league-logo-full-cls-2" d="M111.85,35.51c-1.83,0-2.58.58-2.58,2.34,0,2.34,1.86,2.15,4.68,2.58,2.15.34,4.2,1.21,4.2,4.93,0,4.29-1.86,6.1-6.32,6.1-4.63,0-6.1-2.25-6.1-5.24h3.35c.07,1.43.7,2.2,2.82,2.2s2.92-.85,2.92-2.94-2.61-2.2-4.58-2.46-4.32-1.31-4.32-5.14c0-3.48,2.12-5.28,5.93-5.28,3.36,0,5.57,1.23,5.89,4.94h-3.35C114.29,36,113.47,35.51,111.85,35.51Z"/><path class="eb-league-logo-full-cls-2" d="M179.48,35.51c-1.83,0-2.58.58-2.58,2.34,0,2.34,1.86,2.15,4.68,2.58,2.15.34,4.2,1.21,4.2,4.93,0,4.29-1.86,6.1-6.32,6.1-4.64,0-6.11-2.25-6.11-5.24h3.36c.07,1.43.7,2.2,2.82,2.2s2.92-.85,2.92-2.94-2.61-2.2-4.59-2.46-4.31-1.31-4.31-5.14c0-3.48,2.12-5.28,5.93-5.28,3.35,0,5.57,1.23,5.89,4.94H182C181.92,36,181.1,35.51,179.48,35.51Z"/><path class="eb-league-logo-full-cls-2" d="M131.54,38.31V40c0,3.76-2.13,5.52-6.46,5.52h-1.25v5.58h-3.34V32.87h4.59C129.49,32.87,131.54,34.45,131.54,38.31Zm-3.31,1.52V38.48c0-1.73-.57-2.63-3.1-2.63H123.8v6.51h1.28C127.45,42.36,128.23,41.55,128.23,39.83Z"/><path class="eb-league-logo-full-cls-2" d="M133.67,45.92V38c0-3.86,1.68-5.45,6.09-5.45S146,34.18,146,38v7.88c0,3.77-1.89,5.45-6.22,5.45S133.67,49.69,133.67,45.92Zm9-.16V38.2c0-1.66-.42-2.72-3-2.72-2.37,0-2.82,1.06-2.82,2.72v7.56c0,1.73.45,2.72,2.82,2.72S142.71,47.49,142.71,45.76Z"/><path class="eb-league-logo-full-cls-2" d="M153,44.68h-1.21v6.41h-3.27V32.87h4.6c4.4,0,6.46,1.61,6.46,5.46v1c0,2.7-.95,4.17-3.15,4.88l4,6.93h-3.81Zm3.15-5.56V38.5c0-1.73-.45-2.63-3-2.63h-1.39v5.8h1.35C155.43,41.67,156.1,40.84,156.1,39.12Z"/><path class="eb-league-logo-full-cls-2" d="M168.17,35.77V51.11h-3.24V35.77h-3.79V32.86h10.8v2.91Z"/><path class="eb-league-logo-full-cls-2" d="M103.83,35.7H96.61v4.69h6.16v2.93H96.61v4.81h7.3v3H93.34V32.86h10.49Z"/><path class="eb-league-logo-full-cls-2" d="M93.34,93V74.77h3.29V90h7v3Z"/><path class="eb-league-logo-full-cls-2" d="M116.29,77.61h-7.22V82.3h6.16v2.93h-6.16V90h7.3v3H105.8V74.77h10.49Z"/><path class="eb-league-logo-full-cls-2" d="M172.7,77.61h-7.22V82.3h6.15v2.93h-6.15V90h7.3v3H162.21V74.77H172.7Z"/><path class="eb-league-logo-full-cls-2" d="M127.91,93,127,89.76h-4.66l-1,3.26H118L123,74.77h3.24l5,18.25Zm-3.28-13.2-1.52,6.75h3Z"/><path class="eb-league-logo-full-cls-2" d="M159.48,74.77V87.71c0,3.77-2.3,5.57-6.13,5.57s-6-1.8-6-5.57V74.77h3.27V87.55c0,1.73.75,2.84,2.7,2.84a2.57,2.57,0,0,0,2.86-2.84V74.77Z"/><path class="eb-league-logo-full-cls-2" d="M144.71,83.61v3.94c0,4-1.89,5.73-6.22,5.73s-6.09-1.73-6.09-5.66V80c0-3.72,1.68-5.45,6.09-5.45S144.71,76,144.71,80h-3.26c0-1.71-.43-2.56-3-2.56-2.37,0-2.82,1.06-2.82,2.72v7.51c0,1.73.45,2.72,2.82,2.72s3.19-1,3.19-2.79v-1h-3.1v-3Z"/><path class="eb-league-logo-full-cls-2" d="M180.42,91a2.27,2.27,0,1,1-4.53,0,2.23,2.23,0,0,1,2.38-2.29h-.1A2.13,2.13,0,0,1,180.42,91ZM176.5,91a1.66,1.66,0,1,0,3.31-.05,1.55,1.55,0,0,0-1.64-1.68A1.57,1.57,0,0,0,176.5,91Zm1.66,1.34c-.7,0-1-.3-1-1v-.69a1,1,0,0,1,2,0h-.61c0-.38-.15-.45-.4-.45s-.41.06-.41.42v.69c0,.37.15.46.41.46s.4-.07.4-.48h.6C179.15,92.07,178.86,92.35,178.16,92.35Z"/><path class="eb-league-logo-full-cls-2" d="M99,53.78c3.14,0,5.42,1.37,5.42,4.71a3.64,3.64,0,0,1-2.25,3.6c1.89.4,3,1.8,3,4.29,0,4.35-2.35,5.68-6.49,5.68H93.34V53.78Zm-.24,15.29c2.11,0,2.93-.47,2.93-2.62,0-1.78-.59-2.61-3-2.61H96.59v5.23Zm-2.11-8.26H99a1.92,1.92,0,0,0,2-2.13,1.77,1.77,0,0,0-2-2H96.61Z"/><path class="eb-league-logo-full-cls-2" d="M119.12,53.79V66.74c0,3.76-2.3,5.56-6.13,5.56s-6-1.8-6-5.56V53.79h3.27V66.57c0,1.73.75,2.84,2.7,2.84a2.57,2.57,0,0,0,2.86-2.84V53.79Z"/><path class="eb-league-logo-full-cls-2" d="M127.17,56.67c-1.83,0-2.58.58-2.58,2.34,0,2.34,1.86,2.14,4.68,2.58,2.15.34,4.2,1.2,4.2,4.92,0,4.29-1.86,6.1-6.32,6.1-4.63,0-6.11-2.24-6.11-5.23h3.36c.07,1.42.7,2.19,2.82,2.19s2.92-.84,2.92-2.94-2.61-2.2-4.59-2.46-4.31-1.3-4.31-5.14c0-3.47,2.12-5.28,5.93-5.28,3.35,0,5.57,1.23,5.89,4.94H129.7C129.61,57.13,128.79,56.67,127.17,56.67Z"/><path class="eb-league-logo-full-cls-2" d="M188.48,56.67c-1.84,0-2.59.58-2.59,2.34,0,2.34,1.86,2.14,4.68,2.58,2.15.34,4.2,1.2,4.2,4.92,0,4.29-1.86,6.1-6.32,6.1-4.63,0-6.1-2.24-6.1-5.23h3.35c.07,1.42.7,2.19,2.82,2.19s2.92-.84,2.92-2.94-2.6-2.2-4.58-2.46-4.32-1.3-4.32-5.14c0-3.47,2.12-5.28,5.94-5.28,3.35,0,5.57,1.23,5.88,4.94H191C190.91,57.13,190.09,56.67,188.48,56.67Z"/><path class="eb-league-logo-full-cls-2" d="M135.76,72V53.79h3.29V72Z"/><path class="eb-league-logo-full-cls-2" d="M150.47,72l-5.36-11.57.28,6.92V72h-3.24V53.79h3.24l5.36,12-.35-7.7V53.79h3.24V72Z"/><path class="eb-league-logo-full-cls-2" d="M174.7,56.67c-1.83,0-2.58.58-2.58,2.34,0,2.34,1.86,2.14,4.68,2.58,2.15.34,4.2,1.2,4.2,4.92,0,4.29-1.86,6.1-6.32,6.1-4.63,0-6.1-2.24-6.1-5.23h3.35c.07,1.42.7,2.19,2.82,2.19s2.92-.84,2.92-2.94-2.6-2.2-4.58-2.46-4.32-1.3-4.32-5.14c0-3.47,2.12-5.28,5.93-5.28,3.36,0,5.58,1.23,5.89,4.94h-3.35C177.14,57.13,176.32,56.67,174.7,56.67Z"/><path class="eb-league-logo-full-cls-2" d="M167.08,56.85h-7.22v4.69H166v2.93h-6.16v4.81h7.3v3H156.59V54h10.49Z"/></g></g></svg>
