<svg id="Layer_1" data-name="Layer 1" xmlns="http://www.w3.org/2000/svg" viewBox="0 0 36 36"><title>36x36</title><path d="M24,10c-1.78,0-3.56,0-5.35,0a1.28,1.28,0,0,1-1-.4,7.31,7.31,0,0,0-6.36-2.09A5.89,5.89,0,0,0,6.1,14.39,36.35,36.35,0,0,0,7,18.64a6.26,6.26,0,0,1,0,3.13c-.1.4-.18.8-.25,1.21A1.29,1.29,0,0,0,7,24.2a19.69,19.69,0,0,0,4.18,3.49,4.94,4.94,0,0,0,5.29.18c.9-.54,1-.73.69-1.77a.86.86,0,0,1,.3-1,4,4,0,0,0,1.48-2.44,12.94,12.94,0,0,1,.86-2.45A3.22,3.22,0,0,0,20,17.93a3.85,3.85,0,0,1,.13-2.55,2.56,2.56,0,0,0,0-1.94c-.14-.38-.26-.76-.37-1.12a.82.82,0,0,1,.64-.13c1,0,2-.08,3.05,0,1.25.12,2.16-.52,3.26-1.17A8,8,0,0,0,24,10ZM13,13.64a.85.85,0,0,0-1,.47c-.19.32-.44.35-.7.06l-.1-.07c-.51-.4-.51-.4-1,0l-.18.1a1.32,1.32,0,0,1-.31-.71c-.08-.26-.06-.58-.44-.66-.16,0-.14-.24-.14-.38,0-.36-.21-.51-.54-.56a1.32,1.32,0,0,1-.7-.21,1.08,1.08,0,0,1,.54-.33c.35-.13.44-.35.26-.68a.75.75,0,0,1-.15-.57A1.45,1.45,0,0,1,9.22,10c.33,0,.53,0,.6-.45s.12-.5.62-.31a.32.32,0,0,0,.46-.15,1.1,1.1,0,0,1,.35-.42s0,0,.08,0,0,.46.23.56a1,1,0,0,0,.67,0c.67-.17.69,0,.84.48a1.19,1.19,0,0,0,.6.75l.48.29c.45.3.45.36.06.73l-.19.15c-.25.18-.25.35,0,.53s.33.2.32.42-.2.13-.32.14c-.43,0-.79.08-.7.66C13.36,13.59,13.17,13.69,13,13.64Zm.86,2.78a.8.8,0,0,1-.1-1.36,2.23,2.23,0,0,1,2.54-.19.89.89,0,0,1,0,1.61,2.45,2.45,0,0,1-1.18.34A2.39,2.39,0,0,1,13.85,16.42ZM17.5,22.6a2.85,2.85,0,0,1-1.93-.88c-.2-.18-.19-.35,0-.5a2.16,2.16,0,0,1,1.12-.5c.58,0,1.16,0,1.74,0,.29,0,.43.16.49.45C19.12,22.06,18.54,22.64,17.5,22.6Zm2.35-7.4c.26.16,0,.41,0,.6-.12.42-.13.85-.23,1.28a.84.84,0,0,1-.53-.15.77.77,0,0,1-.28-1.19,1.32,1.32,0,0,1,.4-.38C19.38,15.25,19.63,15.05,19.85,15.2Z"/><path d="M29.5,10.78h-1l-.66,0c-.18,0-.4,0-.43.22s0,.52.26.63a1.49,1.49,0,0,0,.43.06H29.5c.24,0,.46,0,.45-.35S29.85,10.78,29.5,10.78Z"/><path d="M28.53,12.91c-.28-.24-.53-.51-.8-.77s-.25-.3-.46-.09-.35.38-.1.63A16.27,16.27,0,0,0,28.57,14C29.08,13.39,29.08,13.39,28.53,12.91Z"/><path d="M27.08,10.27a.29.29,0,0,0,.48,0c.29-.28.61-.56.91-.84a.62.62,0,0,0,.19-.37.7.7,0,0,0-.26-.35.3.3,0,0,0-.4-.05,8,8,0,0,0-1.06,1C26.76,10,27,10.11,27.08,10.27Z"/><path d="M26.85,12.72a.23.23,0,0,0-.22-.09.44.44,0,0,0-.39.64,6.71,6.71,0,0,0,.35.65c.08.12.17.27.34.16s.46-.22.37-.49A6.49,6.49,0,0,0,26.85,12.72Z"/><path d="M26.41,9.67c.19.05.55-.52.56-.88s-.19-.36-.43-.4-.7.64-.67.86S26.19,9.6,26.41,9.67Z"/></svg>